<svg width="28" height="28" viewBox="0 0 28 28" fill="none" xmlns="http://www.w3.org/2000/svg">
<g filter="url(#filter0_d_2_2)">
<rect x="4" width="20" height="20" rx="10" fill="#D92B2B"/>
<path d="M9.38916 10.1851H8.10742V9.44678H9.38916C9.5988 9.44678 9.76855 9.4126 9.89844 9.34424C10.0306 9.2736 10.1274 9.1779 10.189 9.05713C10.2505 8.93408 10.2812 8.79395 10.2812 8.63672C10.2812 8.48405 10.2505 8.34163 10.189 8.20947C10.1274 8.07731 10.0306 7.97021 9.89844 7.88818C9.76855 7.80615 9.5988 7.76514 9.38916 7.76514H8.41504V12H7.4751V7.02344H9.38916C9.77653 7.02344 10.1069 7.09294 10.3804 7.23193C10.6561 7.36865 10.8657 7.55892 11.0093 7.80273C11.1551 8.04427 11.228 8.31999 11.228 8.62988C11.228 8.95117 11.1551 9.22803 11.0093 9.46045C10.8657 9.69287 10.6561 9.87174 10.3804 9.99707C10.1069 10.1224 9.77653 10.1851 9.38916 10.1851ZM11.9663 7.02344H13.7744C14.1527 7.02344 14.4774 7.0804 14.7485 7.19434C15.0197 7.30827 15.2282 7.47689 15.374 7.7002C15.5199 7.9235 15.5928 8.19808 15.5928 8.52393C15.5928 8.78141 15.5472 9.00472 15.4561 9.19385C15.3649 9.38298 15.2362 9.54134 15.0698 9.66895C14.9058 9.79655 14.7121 9.89681 14.4888 9.96973L14.1948 10.1201H12.5986L12.5918 9.37842H13.7847C13.9784 9.37842 14.139 9.34424 14.2666 9.27588C14.3942 9.20752 14.4899 9.11296 14.5537 8.99219C14.6198 8.87142 14.6528 8.73356 14.6528 8.57861C14.6528 8.41227 14.6209 8.26872 14.5571 8.14795C14.4933 8.0249 14.3965 7.93034 14.2666 7.86426C14.1367 7.79818 13.9727 7.76514 13.7744 7.76514H12.9062V12H11.9663V7.02344ZM14.7759 12L13.624 9.77148L14.6187 9.76807L15.7842 11.9521V12H14.7759ZM20.4463 9.38525V9.6416C20.4463 10.0176 20.3962 10.356 20.2959 10.6567C20.1956 10.9552 20.0532 11.2093 19.8687 11.4189C19.6841 11.6286 19.4642 11.7892 19.209 11.9009C18.9538 12.0125 18.6701 12.0684 18.3579 12.0684C18.0503 12.0684 17.7677 12.0125 17.5103 11.9009C17.255 11.7892 17.034 11.6286 16.8472 11.4189C16.6603 11.2093 16.5156 10.9552 16.4131 10.6567C16.3105 10.356 16.2593 10.0176 16.2593 9.6416V9.38525C16.2593 9.007 16.3105 8.66862 16.4131 8.37012C16.5156 8.07161 16.6592 7.81755 16.8438 7.60791C17.0283 7.396 17.2482 7.23421 17.5034 7.12256C17.7609 7.0109 18.0435 6.95508 18.3511 6.95508C18.6632 6.95508 18.9469 7.0109 19.2021 7.12256C19.4574 7.23421 19.6772 7.396 19.8618 7.60791C20.0487 7.81755 20.1922 8.07161 20.2925 8.37012C20.395 8.66862 20.4463 9.007 20.4463 9.38525ZM19.4961 9.6416V9.37842C19.4961 9.10726 19.471 8.86914 19.4209 8.66406C19.3708 8.45671 19.2967 8.28239 19.1987 8.14111C19.1007 7.99984 18.98 7.89388 18.8364 7.82324C18.6929 7.75033 18.5311 7.71387 18.3511 7.71387C18.1688 7.71387 18.007 7.75033 17.8657 7.82324C17.7267 7.89388 17.6082 7.99984 17.5103 8.14111C17.4123 8.28239 17.3371 8.45671 17.2847 8.66406C17.2345 8.86914 17.2095 9.10726 17.2095 9.37842V9.6416C17.2095 9.91048 17.2345 10.1486 17.2847 10.356C17.3371 10.5633 17.4123 10.7388 17.5103 10.8823C17.6105 11.0236 17.7313 11.1307 17.8726 11.2036C18.0138 11.2765 18.1756 11.313 18.3579 11.313C18.5402 11.313 18.702 11.2765 18.8433 11.2036C18.9845 11.1307 19.103 11.0236 19.1987 10.8823C19.2967 10.7388 19.3708 10.5633 19.4209 10.356C19.471 10.1486 19.4961 9.91048 19.4961 9.6416Z" fill="white"/>
</g>
<defs>
<filter id="filter0_d_2_2" x="0" y="0" width="28" height="28" filterUnits="userSpaceOnUse" color-interpolation-filters="sRGB">
<feFlood flood-opacity="0" result="BackgroundImageFix"/>
<feColorMatrix in="SourceAlpha" type="matrix" values="0 0 0 0 0 0 0 0 0 0 0 0 0 0 0 0 0 0 127 0" result="hardAlpha"/>
<feOffset dy="4"/>
<feGaussianBlur stdDeviation="2"/>
<feComposite in2="hardAlpha" operator="out"/>
<feColorMatrix type="matrix" values="0 0 0 0 0 0 0 0 0 0 0 0 0 0 0 0 0 0 0.25 0"/>
<feBlend mode="normal" in2="BackgroundImageFix" result="effect1_dropShadow_2_2"/>
<feBlend mode="normal" in="SourceGraphic" in2="effect1_dropShadow_2_2" result="shape"/>
</filter>
</defs>
</svg>
