<svg viewBox="0 0 630 80" xmlns="http://www.w3.org/2000/svg"><style>.st1{opacity: 0.30;}.st2{opacity: 0.60;}</style><path class="st1" d="M261.2 64.9C367.6 54.7 499.6 39.7 630 18.5V0C497.8 31.4 363.7 52 261.2 64.9z"></path><path class="st2" d="M261.2 64.9c-41 3.9-78.2 7.1-110 9.6 13.2-.4 27-.9 41.5-1.6C315 67.7 478.4 59.4 630 34.8V18.5C499.1 39.8 367.3 54.8 261.2 64.9z"></path><path d="M192.7 72.9c-14.5.7-28.3 1.2-41.5 1.6C59.9 77.7 0 77.4 0 77.4V80h630V33.8C478.4 58.4 315 67.7 192.7 72.9z"></path></svg>