<?xml version="1.0" encoding="utf-8"?>
<!-- Generator: Adobe Illustrator 24.2.0, SVG Export Plug-In . SVG Version: 6.00 Build 0)  -->
<svg version="1.1" id="Layer_1" xmlns="http://www.w3.org/2000/svg" xmlns:xlink="http://www.w3.org/1999/xlink" x="0px" y="0px"
	 viewBox="0 0 1000 1000" style="enable-background:new 0 0 1000 1000;" xml:space="preserve">
<style type="text/css">
	.st0{display:none;fill:#1E1C39;}
	.st1{display:none;opacity:0.1;}
	.st2{display:inline;}
	.st3{fill:none;stroke:#A28900;stroke-miterlimit:10;}
	.st4{display:none;}
	.st5{fill:url(#SVGID_1_);}
	.st6{fill:url(#SVGID_2_);}
	.st7{fill:url(#SVGID_3_);}
	.st8{fill:url(#SVGID_4_);}
	.st9{fill:url(#SVGID_5_);}
	.st10{fill:url(#SVGID_6_);}
	.st11{fill:url(#SVGID_7_);}
	.st12{fill:url(#SVGID_8_);}
	.st13{display:none;fill:#1B1932;}
	.st14{fill:url(#SVGID_9_);}
	.st15{fill:url(#SVGID_10_);}
	.st16{fill:url(#SVGID_11_);}
	.st17{fill:url(#SVGID_12_);}
	.st18{fill:url(#SVGID_13_);}
	.st19{fill:url(#SVGID_14_);}
	.st20{fill:url(#SVGID_15_);}
	.st21{fill:url(#SVGID_16_);}
	.st22{fill:url(#SVGID_17_);}
	.st23{fill:url(#SVGID_18_);}
	.st24{fill:url(#SVGID_19_);}
	.st25{fill:url(#SVGID_20_);}
	.st26{display:inline;opacity:0.4;fill:url(#SVGID_21_);}
	.st27{fill:url(#SVGID_22_);}
	.st28{fill:url(#SVGID_23_);}
</style>
<rect x="-1.4" y="-1.2" class="st0" width="1002" height="1002"/>
<image style="display:none;overflow:visible;" width="564" height="564" xlink:href="5d8951b11f3ccf87dc4a3d9e233e9df7.jpg"  transform="matrix(1 0 0 1 -676 16)">
</image>
<g class="st1">
	<g class="st2">
		<line class="st3" x1="25.5" y1="10.5" x2="25.5" y2="976.5"/>
		<line class="st3" x1="55.5" y1="10.5" x2="55.5" y2="976.5"/>
		<line class="st3" x1="85.5" y1="10.5" x2="85.5" y2="976.5"/>
		<line class="st3" x1="115.5" y1="10.5" x2="115.5" y2="976.5"/>
		<line class="st3" x1="145.5" y1="10.5" x2="145.5" y2="976.5"/>
		<line class="st3" x1="175.5" y1="10.5" x2="175.5" y2="976.5"/>
		<line class="st3" x1="205.5" y1="10.5" x2="205.5" y2="976.5"/>
		<line class="st3" x1="235.5" y1="10.5" x2="235.5" y2="976.5"/>
		<line class="st3" x1="265.5" y1="10.5" x2="265.5" y2="976.5"/>
		<line class="st3" x1="295.5" y1="10.5" x2="295.5" y2="976.5"/>
		<line class="st3" x1="325.5" y1="10.5" x2="325.5" y2="976.5"/>
		<line class="st3" x1="355.5" y1="10.5" x2="355.5" y2="976.5"/>
		<line class="st3" x1="385.5" y1="10.5" x2="385.5" y2="976.5"/>
		<line class="st3" x1="415.5" y1="10.5" x2="415.5" y2="976.5"/>
		<line class="st3" x1="445.5" y1="10.5" x2="445.5" y2="976.5"/>
		<line class="st3" x1="475.5" y1="10.5" x2="475.5" y2="976.5"/>
		<line class="st3" x1="505.5" y1="10.5" x2="505.5" y2="976.5"/>
		<line class="st3" x1="535.5" y1="10.5" x2="535.5" y2="976.5"/>
		<line class="st3" x1="565.5" y1="10.5" x2="565.5" y2="976.5"/>
		<line class="st3" x1="595.5" y1="10.5" x2="595.5" y2="976.5"/>
		<line class="st3" x1="625.5" y1="10.5" x2="625.5" y2="976.5"/>
		<line class="st3" x1="655.5" y1="10.5" x2="655.5" y2="976.5"/>
		<line class="st3" x1="685.5" y1="10.5" x2="685.5" y2="976.5"/>
		<line class="st3" x1="715.5" y1="10.5" x2="715.5" y2="976.5"/>
		<line class="st3" x1="745.5" y1="10.5" x2="745.5" y2="976.5"/>
		<line class="st3" x1="775.5" y1="10.5" x2="775.5" y2="976.5"/>
		<line class="st3" x1="805.5" y1="10.5" x2="805.5" y2="976.5"/>
		<line class="st3" x1="835.5" y1="10.5" x2="835.5" y2="976.5"/>
		<line class="st3" x1="865.5" y1="10.5" x2="865.5" y2="976.5"/>
		<line class="st3" x1="895.5" y1="10.5" x2="895.5" y2="976.5"/>
		<line class="st3" x1="925.5" y1="10.5" x2="925.5" y2="976.5"/>
		<line class="st3" x1="955.5" y1="10.5" x2="955.5" y2="976.5"/>
	</g>
	<g class="st2">
		<line class="st3" x1="-145.3" y1="654.7" x2="691.3" y2="1137.7"/>
		<line class="st3" x1="-130.3" y1="628.7" x2="706.3" y2="1111.7"/>
		<line class="st3" x1="-115.3" y1="602.7" x2="721.3" y2="1085.7"/>
		<line class="st3" x1="-100.3" y1="576.8" x2="736.3" y2="1059.8"/>
		<line class="st3" x1="-85.3" y1="550.8" x2="751.3" y2="1033.8"/>
		<line class="st3" x1="-70.3" y1="524.8" x2="766.3" y2="1007.8"/>
		<line class="st3" x1="-55.3" y1="498.8" x2="781.3" y2="981.8"/>
		<line class="st3" x1="-40.3" y1="472.8" x2="796.3" y2="955.8"/>
		<line class="st3" x1="-25.3" y1="446.9" x2="811.3" y2="929.9"/>
		<line class="st3" x1="-10.3" y1="420.9" x2="826.3" y2="903.9"/>
		<line class="st3" x1="4.7" y1="394.9" x2="841.3" y2="877.9"/>
		<line class="st3" x1="19.7" y1="368.9" x2="856.3" y2="851.9"/>
		<line class="st3" x1="34.7" y1="342.9" x2="871.3" y2="825.9"/>
		<line class="st3" x1="49.7" y1="317" x2="886.3" y2="800"/>
		<line class="st3" x1="64.7" y1="291" x2="901.3" y2="774"/>
		<line class="st3" x1="79.7" y1="265" x2="916.3" y2="748"/>
		<line class="st3" x1="94.7" y1="239" x2="931.3" y2="722"/>
		<line class="st3" x1="109.7" y1="213" x2="946.3" y2="696"/>
		<line class="st3" x1="124.7" y1="187" x2="961.3" y2="670"/>
		<line class="st3" x1="139.7" y1="161.1" x2="976.3" y2="644.1"/>
		<line class="st3" x1="154.7" y1="135.1" x2="991.3" y2="618.1"/>
		<line class="st3" x1="169.7" y1="109.1" x2="1006.3" y2="592.1"/>
		<line class="st3" x1="184.7" y1="83.1" x2="1021.3" y2="566.1"/>
		<line class="st3" x1="199.7" y1="57.1" x2="1036.3" y2="540.1"/>
		<line class="st3" x1="214.7" y1="31.2" x2="1051.3" y2="514.2"/>
		<line class="st3" x1="229.7" y1="5.2" x2="1066.3" y2="488.2"/>
		<line class="st3" x1="244.7" y1="-20.8" x2="1081.3" y2="462.2"/>
		<line class="st3" x1="259.7" y1="-46.8" x2="1096.3" y2="436.2"/>
		<line class="st3" x1="274.7" y1="-72.8" x2="1111.3" y2="410.2"/>
		<line class="st3" x1="289.7" y1="-98.7" x2="1126.3" y2="384.3"/>
		<line class="st3" x1="304.7" y1="-124.7" x2="1141.3" y2="358.3"/>
		<line class="st3" x1="319.7" y1="-150.7" x2="1156.3" y2="332.3"/>
	</g>
	<g class="st2">
		<line class="st3" x1="1156.3" y1="654.7" x2="319.7" y2="1137.7"/>
		<line class="st3" x1="1141.3" y1="628.7" x2="304.7" y2="1111.7"/>
		<line class="st3" x1="1126.3" y1="602.7" x2="289.7" y2="1085.7"/>
		<line class="st3" x1="1111.3" y1="576.8" x2="274.7" y2="1059.8"/>
		<line class="st3" x1="1096.3" y1="550.8" x2="259.7" y2="1033.8"/>
		<line class="st3" x1="1081.3" y1="524.8" x2="244.7" y2="1007.8"/>
		<line class="st3" x1="1066.3" y1="498.8" x2="229.7" y2="981.8"/>
		<line class="st3" x1="1051.3" y1="472.8" x2="214.7" y2="955.8"/>
		<line class="st3" x1="1036.3" y1="446.9" x2="199.7" y2="929.9"/>
		<line class="st3" x1="1021.3" y1="420.9" x2="184.7" y2="903.9"/>
		<line class="st3" x1="1006.3" y1="394.9" x2="169.7" y2="877.9"/>
		<line class="st3" x1="991.3" y1="368.9" x2="154.7" y2="851.9"/>
		<line class="st3" x1="976.3" y1="342.9" x2="139.7" y2="825.9"/>
		<line class="st3" x1="961.3" y1="317" x2="124.7" y2="800"/>
		<line class="st3" x1="946.3" y1="291" x2="109.7" y2="774"/>
		<line class="st3" x1="931.3" y1="265" x2="94.7" y2="748"/>
		<line class="st3" x1="916.3" y1="239" x2="79.7" y2="722"/>
		<line class="st3" x1="901.3" y1="213" x2="64.7" y2="696"/>
		<line class="st3" x1="886.3" y1="187" x2="49.7" y2="670"/>
		<line class="st3" x1="871.3" y1="161.1" x2="34.7" y2="644.1"/>
		<line class="st3" x1="856.3" y1="135.1" x2="19.7" y2="618.1"/>
		<line class="st3" x1="841.3" y1="109.1" x2="4.7" y2="592.1"/>
		<line class="st3" x1="826.3" y1="83.1" x2="-10.3" y2="566.1"/>
		<line class="st3" x1="811.3" y1="57.1" x2="-25.3" y2="540.1"/>
		<line class="st3" x1="796.3" y1="31.2" x2="-40.3" y2="514.2"/>
		<line class="st3" x1="781.3" y1="5.2" x2="-55.3" y2="488.2"/>
		<line class="st3" x1="766.3" y1="-20.8" x2="-70.3" y2="462.2"/>
		<line class="st3" x1="751.3" y1="-46.8" x2="-85.3" y2="436.2"/>
		<line class="st3" x1="736.3" y1="-72.8" x2="-100.3" y2="410.2"/>
		<line class="st3" x1="721.3" y1="-98.7" x2="-115.3" y2="384.3"/>
		<line class="st3" x1="706.3" y1="-124.7" x2="-130.3" y2="358.3"/>
		<line class="st3" x1="691.3" y1="-150.7" x2="-145.3" y2="332.3"/>
	</g>
</g>
<g class="st4">
	<g class="st2">
		
			<image style="overflow:visible;opacity:0.2;" width="828" height="405" xlink:href="A6C590003CBA78A3.png"  transform="matrix(1 0 0 1 95 89)">
		</image>
		<g>
			
				<image style="overflow:visible;opacity:0.25;" width="770" height="351" xlink:href="A6C590003CBA78A1.png"  transform="matrix(1 0 0 1 122 114)">
			</image>
			<g>
				<linearGradient id="SVGID_1_" gradientUnits="userSpaceOnUse" x1="715.6252" y1="604.8587" x2="292.8748" y2="182.1083">
					<stop  offset="0" style="stop-color:#FE4628"/>
					<stop  offset="0.1445" style="stop-color:#FE452C"/>
					<stop  offset="0.2895" style="stop-color:#FC4338"/>
					<stop  offset="0.4347" style="stop-color:#FA404C"/>
					<stop  offset="0.5803" style="stop-color:#F63C68"/>
					<stop  offset="0.7261" style="stop-color:#F2368D"/>
					<stop  offset="0.8701" style="stop-color:#ED2FB9"/>
					<stop  offset="1" style="stop-color:#E727E7"/>
				</linearGradient>
				<polygon class="st5" points="504.2,126.9 134.8,340.2 134.8,446.8 504.2,233.5 873.7,446.8 873.7,340.2 				"/>
			</g>
		</g>
	</g>
	<g class="st2">
		
			<image style="overflow:visible;opacity:0.2;" width="458" height="297" xlink:href="A6C590003CBA78A7.png"  transform="matrix(1 0 0 1 280 303)">
		</image>
		<g>
			
				<image style="overflow:visible;opacity:0.25;" width="400" height="244" xlink:href="A6C590003CBA78A2.png"  transform="matrix(1 0 0 1 307 328)">
			</image>
			<g>
				<linearGradient id="SVGID_2_" gradientUnits="userSpaceOnUse" x1="623.2682" y1="619.1464" x2="385.2318" y2="381.11">
					<stop  offset="0" style="stop-color:#FE4628"/>
					<stop  offset="0.1445" style="stop-color:#FE452C"/>
					<stop  offset="0.2895" style="stop-color:#FC4338"/>
					<stop  offset="0.4347" style="stop-color:#FA404C"/>
					<stop  offset="0.5803" style="stop-color:#F63C68"/>
					<stop  offset="0.7261" style="stop-color:#F2368D"/>
					<stop  offset="0.8701" style="stop-color:#ED2FB9"/>
					<stop  offset="1" style="stop-color:#E727E7"/>
				</linearGradient>
				<polygon class="st6" points="504.2,340.2 319.5,446.8 319.5,553.5 504.2,446.8 689,553.5 689,446.8 				"/>
			</g>
		</g>
	</g>
	<g class="st2">
		
			<image style="overflow:visible;opacity:0.2;" width="457" height="403" xlink:href="A6C590003CBA78AD.png"  transform="matrix(1 0 0 1 280 410)">
		</image>
		<g>
			
				<image style="overflow:visible;opacity:0.25;" width="400" height="351" xlink:href="A6C590003CBA78AE.png"  transform="matrix(1 0 0 1 307 434)">
			</image>
			<g>
				<linearGradient id="SVGID_3_" gradientUnits="userSpaceOnUse" x1="676.7435" y1="778.9605" x2="331.9736" y2="434.1906">
					<stop  offset="0" style="stop-color:#FE4628"/>
					<stop  offset="0.1445" style="stop-color:#FE452C"/>
					<stop  offset="0.2895" style="stop-color:#FC4338"/>
					<stop  offset="0.4347" style="stop-color:#FA404C"/>
					<stop  offset="0.5803" style="stop-color:#F63C68"/>
					<stop  offset="0.7261" style="stop-color:#F2368D"/>
					<stop  offset="0.8701" style="stop-color:#ED2FB9"/>
					<stop  offset="1" style="stop-color:#E727E7"/>
				</linearGradient>
				<polygon class="st7" points="319.5,446.6 689,660.1 689,766.7 319.5,552.8 				"/>
			</g>
		</g>
	</g>
	<g class="st2">
		
			<image style="overflow:visible;opacity:0.2;" width="458" height="298" xlink:href="A6C590003CBA78AF.png"  transform="matrix(1 0 0 1 280 623)">
		</image>
		<g>
			
				<image style="overflow:visible;opacity:0.25;" width="400" height="244" xlink:href="A6C590003CBA78A4.png"  transform="matrix(1 0 0 1 307 648)">
			</image>
			<g>
				
					<linearGradient id="SVGID_4_" gradientUnits="userSpaceOnUse" x1="623.1747" y1="832.5886" x2="385.1087" y2="594.5226" gradientTransform="matrix(1 0 0 1 -2.656066e-04 1.746773e-04)">
					<stop  offset="0" style="stop-color:#FE4628"/>
					<stop  offset="0.1445" style="stop-color:#FE452C"/>
					<stop  offset="0.2895" style="stop-color:#FC4338"/>
					<stop  offset="0.4347" style="stop-color:#FA404C"/>
					<stop  offset="0.5803" style="stop-color:#F63C68"/>
					<stop  offset="0.7261" style="stop-color:#F2368D"/>
					<stop  offset="0.8701" style="stop-color:#ED2FB9"/>
					<stop  offset="1" style="stop-color:#E727E7"/>
				</linearGradient>
				<polygon class="st8" points="689,660.6 504.2,766.7 319.5,660.1 319.5,766.7 504.2,873.4 689,766.8 				"/>
			</g>
		</g>
	</g>
</g>
<g class="st4">
	<g class="st2">
		
			<image style="overflow:visible;opacity:0.2;" width="826" height="404" xlink:href="1A8DD008C6F36F5A.png"  transform="matrix(1 0 0 1 91 89)">
		</image>
		<g>
			
				<image style="overflow:visible;opacity:0.25;" width="769" height="351" xlink:href="1A8DD008C6F36F5D.png"  transform="matrix(1 0 0 1 118 114)">
			</image>
			<g>
				<linearGradient id="SVGID_5_" gradientUnits="userSpaceOnUse" x1="710.9443" y1="604.497" x2="288.1939" y2="181.7466">
					<stop  offset="0" style="stop-color:#0C38EA"/>
					<stop  offset="0.1594" style="stop-color:#0C3CEB"/>
					<stop  offset="0.3193" style="stop-color:#0C48EC"/>
					<stop  offset="0.4795" style="stop-color:#0B5CEF"/>
					<stop  offset="0.64" style="stop-color:#0A78F2"/>
					<stop  offset="0.8007" style="stop-color:#099DF7"/>
					<stop  offset="0.9596" style="stop-color:#08C9FC"/>
					<stop  offset="1" style="stop-color:#08D5FE"/>
				</linearGradient>
				<polygon class="st9" points="499.6,126.5 130.1,339.8 130.1,446.4 499.6,233.2 869,446.4 869,339.8 				"/>
			</g>
		</g>
	</g>
	<g class="st2">
		
			<image style="overflow:visible;opacity:0.2;" width="459" height="298" xlink:href="1A8DD008C6F36F5E.png"  transform="matrix(1 0 0 1 275 302)">
		</image>
		<g>
			
				<image style="overflow:visible;opacity:0.25;" width="401" height="245" xlink:href="1A8DD008C6F36F5C.png"  transform="matrix(1 0 0 1 302 327)">
			</image>
			<g>
				<linearGradient id="SVGID_6_" gradientUnits="userSpaceOnUse" x1="618.5873" y1="618.7847" x2="380.551" y2="380.7483">
					<stop  offset="0" style="stop-color:#0C38EA"/>
					<stop  offset="0.1594" style="stop-color:#0C3CEB"/>
					<stop  offset="0.3193" style="stop-color:#0C48EC"/>
					<stop  offset="0.4795" style="stop-color:#0B5CEF"/>
					<stop  offset="0.64" style="stop-color:#0A78F2"/>
					<stop  offset="0.8007" style="stop-color:#099DF7"/>
					<stop  offset="0.9596" style="stop-color:#08C9FC"/>
					<stop  offset="1" style="stop-color:#08D5FE"/>
				</linearGradient>
				<polygon class="st10" points="499.6,339.8 314.9,446.4 314.9,553.1 499.6,446.4 684.3,553.1 684.3,446.4 				"/>
			</g>
		</g>
	</g>
	<g class="st2">
		
			<image style="overflow:visible;opacity:0.2;" width="458" height="404" xlink:href="1A8DD008C6F36F5B.png"  transform="matrix(1 0 0 1 275 409)">
		</image>
		<g>
			
				<image style="overflow:visible;opacity:0.25;" width="401" height="351" xlink:href="1A8DD008C6F36F45.png"  transform="matrix(1 0 0 1 302 434)">
			</image>
			<g>
				<linearGradient id="SVGID_7_" gradientUnits="userSpaceOnUse" x1="672.0626" y1="778.5988" x2="327.2927" y2="433.8289">
					<stop  offset="0" style="stop-color:#0C38EA"/>
					<stop  offset="0.1594" style="stop-color:#0C3CEB"/>
					<stop  offset="0.3193" style="stop-color:#0C48EC"/>
					<stop  offset="0.4795" style="stop-color:#0B5CEF"/>
					<stop  offset="0.64" style="stop-color:#0A78F2"/>
					<stop  offset="0.8007" style="stop-color:#099DF7"/>
					<stop  offset="0.9596" style="stop-color:#08C9FC"/>
					<stop  offset="1" style="stop-color:#08D5FE"/>
				</linearGradient>
				<polygon class="st11" points="314.9,446.3 684.3,659.7 684.3,766.4 314.9,552.5 				"/>
			</g>
		</g>
	</g>
	<g class="st2">
		
			<image style="overflow:visible;opacity:0.2;" width="459" height="298" xlink:href="1A8DD008C6F36F46.png"  transform="matrix(1 0 0 1 275 623)">
		</image>
		<g>
			
				<image style="overflow:visible;opacity:0.25;" width="401" height="245" xlink:href="1A8DD008C6F36F44.png"  transform="matrix(1 0 0 1 302 647)">
			</image>
			<g>
				
					<linearGradient id="SVGID_8_" gradientUnits="userSpaceOnUse" x1="618.4939" y1="832.2269" x2="380.4279" y2="594.1609" gradientTransform="matrix(1 0 0 1 -2.656066e-04 1.746773e-04)">
					<stop  offset="0" style="stop-color:#0C38EA"/>
					<stop  offset="0.1594" style="stop-color:#0C3CEB"/>
					<stop  offset="0.3193" style="stop-color:#0C48EC"/>
					<stop  offset="0.4795" style="stop-color:#0B5CEF"/>
					<stop  offset="0.64" style="stop-color:#0A78F2"/>
					<stop  offset="0.8007" style="stop-color:#099DF7"/>
					<stop  offset="0.9596" style="stop-color:#08C9FC"/>
					<stop  offset="1" style="stop-color:#08D5FE"/>
				</linearGradient>
				<polygon class="st12" points="684.3,660.2 499.6,766.4 314.9,659.7 314.9,766.4 499.6,873 684.3,766.4 				"/>
			</g>
		</g>
	</g>
</g>
<rect x="-4" y="-1" class="st13" width="1002" height="1002"/>
<g>
	<g>
		<linearGradient id="SVGID_9_" gradientUnits="userSpaceOnUse" x1="710.588" y1="603.539" x2="287.8376" y2="180.7886">
			<stop  offset="0" style="stop-color:#154DE9"/>
			<stop  offset="0.1713" style="stop-color:#1551EA"/>
			<stop  offset="0.343" style="stop-color:#135DEB"/>
			<stop  offset="0.5152" style="stop-color:#1271EF"/>
			<stop  offset="0.6877" style="stop-color:#0F8DF3"/>
			<stop  offset="0.8587" style="stop-color:#0BB1F8"/>
			<stop  offset="1" style="stop-color:#08D5FE"/>
		</linearGradient>
		<polygon class="st14" points="499.2,125.6 129.8,338.8 129.8,445.5 499.2,232.2 868.6,445.5 868.6,338.8 		"/>
	</g>
	<g>
		<linearGradient id="SVGID_10_" gradientUnits="userSpaceOnUse" x1="618.231" y1="617.2149" x2="380.1946" y2="379.1785">
			<stop  offset="0" style="stop-color:#154DE9"/>
			<stop  offset="0.1713" style="stop-color:#1551EA"/>
			<stop  offset="0.343" style="stop-color:#135DEB"/>
			<stop  offset="0.5152" style="stop-color:#1271EF"/>
			<stop  offset="0.6877" style="stop-color:#0F8DF3"/>
			<stop  offset="0.8587" style="stop-color:#0BB1F8"/>
			<stop  offset="1" style="stop-color:#08D5FE"/>
		</linearGradient>
		<polygon class="st15" points="499.2,338.2 314.5,444.9 314.5,551.5 499.2,444.9 683.9,551.5 683.9,444.9 		"/>
	</g>
	<g>
		<linearGradient id="SVGID_11_" gradientUnits="userSpaceOnUse" x1="671.7062" y1="777.6408" x2="326.9363" y2="432.8709">
			<stop  offset="0" style="stop-color:#154DE9"/>
			<stop  offset="0.1713" style="stop-color:#1551EA"/>
			<stop  offset="0.343" style="stop-color:#135DEB"/>
			<stop  offset="0.5152" style="stop-color:#1271EF"/>
			<stop  offset="0.6877" style="stop-color:#0F8DF3"/>
			<stop  offset="0.8587" style="stop-color:#0BB1F8"/>
			<stop  offset="1" style="stop-color:#08D5FE"/>
		</linearGradient>
		<polygon class="st16" points="314.5,445.3 683.9,658.8 683.9,765.4 314.5,551.5 		"/>
	</g>
	<g>
		<g>
			<linearGradient id="SVGID_12_" gradientUnits="userSpaceOnUse" x1="315.3162" y1="552.4113" x2="683.6257" y2="552.4113">
				<stop  offset="0" style="stop-color:#FFFFFF"/>
				<stop  offset="1" style="stop-color:#1143CE"/>
			</linearGradient>
			<path class="st17" d="M315.1,446c3.3,1.9,6.6,3.8,9.9,5.8c8.9,5.2,17.8,10.4,26.7,15.6c13.2,7.7,26.5,15.4,39.7,23.1
				c16.1,9.3,32.1,18.7,48.2,28c17.7,10.3,35.4,20.6,53.1,30.9c17.8,10.3,35.5,20.7,53.3,31c16.6,9.7,33.2,19.3,49.8,29
				c14,8.2,28.1,16.3,42.1,24.5c10.1,5.9,20.1,11.7,30.2,17.6c4.8,2.8,9.6,5.6,14.4,8.4c0.2,0.1,0.4,0.2,0.6,0.4
				c0.8,0.5,1.6-0.8,0.8-1.3c-3.3-1.9-6.6-3.8-9.9-5.8c-8.9-5.2-17.8-10.4-26.7-15.6c-13.2-7.7-26.5-15.4-39.7-23.1
				c-16.1-9.3-32.1-18.7-48.2-28c-17.7-10.3-35.4-20.6-53.1-30.9c-17.8-10.3-35.5-20.7-53.3-31c-16.6-9.7-33.2-19.3-49.8-29
				c-14-8.2-28.1-16.3-42.1-24.5c-10.1-5.9-20.1-11.7-30.2-17.6c-4.8-2.8-9.6-5.6-14.4-8.4c-0.2-0.1-0.4-0.2-0.6-0.4
				C315,444.2,314.2,445.5,315.1,446L315.1,446z"/>
		</g>
	</g>
	<g>
		
			<linearGradient id="SVGID_13_" gradientUnits="userSpaceOnUse" x1="491.2906" y1="581.155" x2="690.5663" y2="381.8792" gradientTransform="matrix(-1 0 0 1 1181.8231 177.2304)">
			<stop  offset="0" style="stop-color:#000000"/>
			<stop  offset="4.850775e-02" style="stop-color:#030E15;stop-opacity:0.9515"/>
			<stop  offset="0.1964" style="stop-color:#0B3450;stop-opacity:0.8036"/>
			<stop  offset="0.3442" style="stop-color:#125582;stop-opacity:0.6558"/>
			<stop  offset="0.4884" style="stop-color:#1771AB;stop-opacity:0.5116"/>
			<stop  offset="0.6283" style="stop-color:#1B86CB;stop-opacity:0.3717"/>
			<stop  offset="0.7627" style="stop-color:#1E95E2;stop-opacity:0.2373"/>
			<stop  offset="0.8893" style="stop-color:#209EF0;stop-opacity:0.1107"/>
			<stop  offset="1" style="stop-color:#21A1F5;stop-opacity:0"/>
		</linearGradient>
		<polygon class="st18" points="683.6,765.3 683.2,658.3 498.3,552.1 498.3,658.8 		"/>
	</g>
	<g>
		
			<linearGradient id="SVGID_14_" gradientUnits="userSpaceOnUse" x1="618.1375" y1="831.2689" x2="380.0715" y2="593.2029" gradientTransform="matrix(1 0 0 1 -2.656066e-04 1.746773e-04)">
			<stop  offset="0" style="stop-color:#154DE9"/>
			<stop  offset="0.1713" style="stop-color:#1551EA"/>
			<stop  offset="0.343" style="stop-color:#135DEB"/>
			<stop  offset="0.5152" style="stop-color:#1271EF"/>
			<stop  offset="0.6877" style="stop-color:#0F8DF3"/>
			<stop  offset="0.8587" style="stop-color:#0BB1F8"/>
			<stop  offset="1" style="stop-color:#08D5FE"/>
		</linearGradient>
		<polygon class="st19" points="683.9,659.3 499.2,765.4 314.5,658.8 314.5,765.4 499.2,872.1 683.9,765.5 		"/>
	</g>
	<g>
		<g>
			<linearGradient id="SVGID_15_" gradientUnits="userSpaceOnUse" x1="683.6253" y1="712.5" x2="500.3747" y2="712.5">
				<stop  offset="0" style="stop-color:#2383EE"/>
				<stop  offset="1" style="stop-color:#2381ED"/>
			</linearGradient>
			<path class="st20" d="M500.9,766.1c1.6-0.9,3.3-1.9,4.9-2.8c4.4-2.6,8.9-5.1,13.3-7.7c6.6-3.8,13.1-7.6,19.7-11.4
				c8-4.6,16-9.3,24-13.9c8.8-5.1,17.6-10.2,26.3-15.3c8.9-5.1,17.7-10.3,26.6-15.4c8.2-4.8,16.5-9.5,24.7-14.3c7-4,14-8.1,21-12.1
				c5-2.9,10-5.8,15.1-8.7c2.4-1.4,4.8-2.7,7.1-4.1c0.1-0.1,0.2-0.1,0.3-0.2c0.8-0.5,0.1-1.8-0.8-1.3c-1.6,0.9-3.3,1.9-4.9,2.8
				c-4.4,2.6-8.9,5.1-13.3,7.7c-6.6,3.8-13.1,7.6-19.7,11.4c-8,4.6-16,9.3-24,13.9c-8.8,5.1-17.6,10.2-26.3,15.3
				c-8.9,5.1-17.7,10.3-26.6,15.4c-8.2,4.8-16.5,9.5-24.7,14.3c-7,4-14,8.1-21,12.1c-5,2.9-10,5.8-15.1,8.7
				c-2.4,1.4-4.8,2.7-7.1,4.1c-0.1,0.1-0.2,0.1-0.3,0.2C499.3,765.3,500,766.6,500.9,766.1L500.9,766.1z"/>
		</g>
	</g>
</g>
<g>
	<g>
		<linearGradient id="SVGID_16_" gradientUnits="userSpaceOnUse" x1="315.317" y1="712.4113" x2="499.6249" y2="712.4113">
			<stop  offset="0" style="stop-color:#FFFFFF"/>
			<stop  offset="1" style="stop-color:#1760EC"/>
		</linearGradient>
		<path class="st21" d="M315.1,660c1.6,0.9,3.3,1.9,4.9,2.8c4.5,2.6,8.9,5.2,13.4,7.7c6.6,3.8,13.2,7.6,19.8,11.4
			c8.1,4.6,16.1,9.3,24.2,13.9c8.8,5.1,17.7,10.2,26.5,15.3c8.9,5.1,17.8,10.3,26.7,15.4c8.3,4.8,16.5,9.5,24.8,14.3
			c7,4.1,14.1,8.1,21.1,12.2c5,2.9,10.1,5.8,15.1,8.7c2.4,1.4,4.8,2.8,7.2,4.1c0.1,0.1,0.2,0.1,0.3,0.2c0.8,0.5,1.6-0.8,0.8-1.3
			c-1.6-0.9-3.3-1.9-4.9-2.8c-4.5-2.6-8.9-5.2-13.4-7.7c-6.6-3.8-13.2-7.6-19.8-11.4c-8.1-4.6-16.1-9.3-24.2-13.9
			c-8.8-5.1-17.7-10.2-26.5-15.3c-8.9-5.1-17.8-10.3-26.7-15.4c-8.3-4.8-16.5-9.5-24.8-14.3c-7-4.1-14.1-8.1-21.1-12.2
			c-5-2.9-10.1-5.8-15.1-8.7c-2.4-1.4-4.8-2.8-7.2-4.1c-0.1-0.1-0.2-0.1-0.3-0.2C315,658.2,314.2,659.5,315.1,660L315.1,660z"/>
	</g>
</g>
<g>
	<g>
		<linearGradient id="SVGID_17_" gradientUnits="userSpaceOnUse" x1="315.2904" y1="392.2504" x2="498.6248" y2="392.2504">
			<stop  offset="0" style="stop-color:#FFFFFF"/>
			<stop  offset="1" style="stop-color:#22AEF5"/>
		</linearGradient>
		<path class="st22" d="M315.8,445.6c1.6-0.9,3.3-1.9,4.9-2.8c4.4-2.6,8.9-5.1,13.3-7.7c6.6-3.8,13.2-7.6,19.7-11.4
			c8-4.6,16-9.2,24-13.8c8.8-5.1,17.6-10.1,26.4-15.2c8.9-5.1,17.7-10.2,26.6-15.3c8.2-4.7,16.5-9.5,24.7-14.2c7-4,13.9-8,20.9-12
			c5-2.9,10.1-5.8,15.1-8.7c2.4-1.4,4.8-2.7,7.1-4.1c0.1-0.1,0.2-0.1,0.3-0.2c0.8-0.5,0.1-1.8-0.8-1.3c-1.6,0.9-3.3,1.9-4.9,2.8
			c-4.4,2.6-8.9,5.1-13.3,7.7c-6.6,3.8-13.2,7.6-19.7,11.4c-8,4.6-16,9.2-24,13.8c-8.8,5.1-17.6,10.1-26.4,15.2
			c-8.9,5.1-17.7,10.2-26.6,15.3c-8.2,4.7-16.5,9.5-24.7,14.2c-7,4-13.9,8-20.9,12c-5,2.9-10.1,5.8-15.1,8.7
			c-2.4,1.4-4.8,2.7-7.1,4.1c-0.1,0.1-0.2,0.1-0.3,0.2C314.2,444.8,315,446.1,315.8,445.6L315.8,445.6z"/>
	</g>
</g>
<g>
	
		<linearGradient id="SVGID_18_" gradientUnits="userSpaceOnUse" x1="307.4952" y1="185.4001" x2="506.771" y2="-13.8757" gradientTransform="matrix(1 0 0 -1 0 850.2207)">
		<stop  offset="0" style="stop-color:#FFFFFF"/>
		<stop  offset="3.500676e-02" style="stop-color:#EBF6FE;stop-opacity:0.965"/>
		<stop  offset="0.1252" style="stop-color:#BCE3FC;stop-opacity:0.8748"/>
		<stop  offset="0.221" style="stop-color:#92D1FA;stop-opacity:0.779"/>
		<stop  offset="0.321" style="stop-color:#6FC2F9;stop-opacity:0.679"/>
		<stop  offset="0.4262" style="stop-color:#53B6F7;stop-opacity:0.5738"/>
		<stop  offset="0.5383" style="stop-color:#3DADF6;stop-opacity:0.4617"/>
		<stop  offset="0.6607" style="stop-color:#2DA6F6;stop-opacity:0.3393"/>
		<stop  offset="0.8011" style="stop-color:#24A2F5;stop-opacity:0.1989"/>
		<stop  offset="1" style="stop-color:#21A1F5;stop-opacity:0"/>
	</linearGradient>
	<polygon class="st23" points="314.5,657.9 314.9,764.9 499.8,871.1 499.8,764.4 	"/>
</g>
<g>
	
		<linearGradient id="SVGID_19_" gradientUnits="userSpaceOnUse" x1="326.6876" y1="418.3047" x2="670.1876" y2="74.8047" gradientTransform="matrix(1 0 0 -1 0 850.2207)">
		<stop  offset="0" style="stop-color:#FFFFFF"/>
		<stop  offset="3.500676e-02" style="stop-color:#EBF6FE;stop-opacity:0.965"/>
		<stop  offset="0.1252" style="stop-color:#BCE3FC;stop-opacity:0.8748"/>
		<stop  offset="0.221" style="stop-color:#92D1FA;stop-opacity:0.779"/>
		<stop  offset="0.321" style="stop-color:#6FC2F9;stop-opacity:0.679"/>
		<stop  offset="0.4262" style="stop-color:#53B6F7;stop-opacity:0.5738"/>
		<stop  offset="0.5383" style="stop-color:#3DADF6;stop-opacity:0.4617"/>
		<stop  offset="0.6607" style="stop-color:#2DA6F6;stop-opacity:0.3393"/>
		<stop  offset="0.8011" style="stop-color:#24A2F5;stop-opacity:0.1989"/>
		<stop  offset="1" style="stop-color:#21A1F5;stop-opacity:0"/>
	</linearGradient>
	<polygon class="st24" points="314.1,444.5 314.5,551.5 682.6,763 683.6,657 	"/>
</g>
<g>
	<linearGradient id="SVGID_20_" gradientUnits="userSpaceOnUse" x1="198.3687" y1="220.0505" x2="429.4991" y2="353.4937">
		<stop  offset="0" style="stop-color:#FFFFFF"/>
		<stop  offset="3.500676e-02" style="stop-color:#EBF6FE;stop-opacity:0.965"/>
		<stop  offset="0.1252" style="stop-color:#BCE3FC;stop-opacity:0.8748"/>
		<stop  offset="0.221" style="stop-color:#92D1FA;stop-opacity:0.779"/>
		<stop  offset="0.321" style="stop-color:#6FC2F9;stop-opacity:0.679"/>
		<stop  offset="0.4262" style="stop-color:#53B6F7;stop-opacity:0.5738"/>
		<stop  offset="0.5383" style="stop-color:#3DADF6;stop-opacity:0.4617"/>
		<stop  offset="0.6607" style="stop-color:#2DA6F6;stop-opacity:0.3393"/>
		<stop  offset="0.8011" style="stop-color:#24A2F5;stop-opacity:0.1989"/>
		<stop  offset="1" style="stop-color:#21A1F5;stop-opacity:0"/>
	</linearGradient>
	<polygon class="st25" points="129.4,445.8 129.8,338.8 497.9,127.3 498.9,233.3 	"/>
</g>
<g class="st4">
	
		<linearGradient id="SVGID_21_" gradientUnits="userSpaceOnUse" x1="490.8294" y1="270.4852" x2="690.1052" y2="71.2094" gradientTransform="matrix(-1 0 0 -1 1181.8231 936.8812)">
		<stop  offset="0" style="stop-color:#000000"/>
		<stop  offset="4.850775e-02" style="stop-color:#030E15;stop-opacity:0.9515"/>
		<stop  offset="0.1964" style="stop-color:#0B3450;stop-opacity:0.8036"/>
		<stop  offset="0.3442" style="stop-color:#125582;stop-opacity:0.6558"/>
		<stop  offset="0.4884" style="stop-color:#1771AB;stop-opacity:0.5116"/>
		<stop  offset="0.6283" style="stop-color:#1B86CB;stop-opacity:0.3717"/>
		<stop  offset="0.7627" style="stop-color:#1E95E2;stop-opacity:0.2373"/>
		<stop  offset="0.8893" style="stop-color:#209EF0;stop-opacity:0.1107"/>
		<stop  offset="1" style="stop-color:#21A1F5;stop-opacity:0"/>
	</linearGradient>
	<polygon class="st26" points="684,659.4 683.6,766.4 498.7,872.7 498.7,766 	"/>
</g>
<g>
	
		<linearGradient id="SVGID_22_" gradientUnits="userSpaceOnUse" x1="131.4152" y1="233.2504" x2="499.5" y2="233.2504" gradientTransform="matrix(0.9993 -2.843611e-03 3.591183e-03 0.9998 -1.1316 0.4485)">
		<stop  offset="0" style="stop-color:#FFFFFF"/>
		<stop  offset="1" style="stop-color:#000000"/>
	</linearGradient>
	<line class="st27" x1="131.4" y1="339" x2="498.5" y2="126.5"/>
	<g>
		<linearGradient id="SVGID_23_" gradientUnits="userSpaceOnUse" x1="131.2899" y1="232.7504" x2="498.6252" y2="232.7504">
			<stop  offset="0" style="stop-color:#FFFFFF"/>
			<stop  offset="1" style="stop-color:#22ABF5"/>
		</linearGradient>
		<path class="st28" d="M131.8,339.6c3.3-1.9,6.6-3.8,9.9-5.7c8.9-5.2,17.8-10.3,26.7-15.5c13.2-7.6,26.3-15.2,39.5-22.8
			c16-9.3,32.1-18.6,48.1-27.9c17.7-10.2,35.3-20.5,53-30.7c17.7-10.3,35.5-20.5,53.2-30.8c16.5-9.6,33.1-19.1,49.6-28.7
			c14-8.1,28-16.2,41.9-24.3c10.1-5.8,20.2-11.7,30.3-17.5c4.7-2.7,9.5-5.4,14.2-8.2c0.2-0.1,0.4-0.2,0.6-0.4
			c0.8-0.5,0.1-1.8-0.8-1.3c-3.3,1.9-6.6,3.8-9.9,5.7c-8.9,5.2-17.8,10.3-26.7,15.5c-13.2,7.6-26.3,15.2-39.5,22.8
			c-16,9.3-32.1,18.6-48.1,27.9c-17.7,10.2-35.3,20.5-53,30.7c-17.7,10.3-35.5,20.5-53.2,30.8c-16.5,9.6-33.1,19.1-49.6,28.7
			c-14,8.1-28,16.2-41.9,24.3c-10.1,5.8-20.2,11.7-30.3,17.5c-4.7,2.7-9.5,5.4-14.2,8.2c-0.2,0.1-0.4,0.2-0.6,0.4
			C130.2,338.8,131,340.1,131.8,339.6L131.8,339.6z"/>
	</g>
</g>
</svg>
