<?xml version="1.0" encoding="utf-8"?>
<!-- Generator: Adobe Illustrator 24.2.0, SVG Export Plug-In . SVG Version: 6.00 Build 0)  -->
<svg version="1.1" id="Layer_1" xmlns="http://www.w3.org/2000/svg" xmlns:xlink="http://www.w3.org/1999/xlink" x="0px" y="0px"
	 viewBox="0 0 200 200" style="enable-background:new 0 0 200 200;" xml:space="preserve">
<path id="express" d="M89.9,123.1H6.1c-3.6,0-6.5-2.9-6.5-6.5V40.2c0-3.6,2.9-6.5,6.5-6.5h83.8c3.6,0,6.5,2.9,6.5,6.5v76.3
	C96.4,120.1,93.5,123.1,89.9,123.1z M6.1,38.8c-0.8,0-1.5,0.7-1.5,1.5v76.3c0,0.8,0.7,1.5,1.5,1.5h83.8c0.8,0,1.5-0.7,1.5-1.5V40.2
	c0-0.8-0.7-1.5-1.5-1.5L6.1,38.8L6.1,38.8z M137.9,69.1h-22.4c-3.6,0-6.5-2.9-6.5-6.5V40.2c0-3.6,2.9-6.5,6.5-6.5h22.4
	c3.6,0,6.5,2.9,6.5,6.5v22.4C144.4,66.2,141.4,69.1,137.9,69.1z M115.5,38.8c-0.8,0-1.5,0.7-1.5,1.5v22.4c0,0.8,0.7,1.5,1.5,1.5
	h22.4c0.8,0,1.5-0.7,1.5-1.5V40.2c0-0.8-0.7-1.5-1.5-1.5L115.5,38.8L115.5,38.8z M137.9,117.5h-22.4c-3.6,0-6.5-2.9-6.5-6.5V88.7
	c0-3.6,2.9-6.5,6.5-6.5h22.4c3.6,0,6.5,2.9,6.5,6.5V111C144.4,114.6,141.4,117.5,137.9,117.5z M115.5,87.2c-0.8,0-1.5,0.7-1.5,1.5
	V111c0,0.8,0.7,1.5,1.5,1.5h22.4c0.8,0,1.5-0.7,1.5-1.5V88.7c0-0.8-0.7-1.5-1.5-1.5H115.5z M137.9,166h-22.4c-3.6,0-6.5-2.9-6.5-6.5
	v-22.4c0-3.6,2.9-6.5,6.5-6.5h22.4c3.6,0,6.5,2.9,6.5,6.5v22.4C144.4,163.1,141.4,166,137.9,166z M115.5,135.6
	c-0.8,0-1.5,0.7-1.5,1.5v22.4c0,0.8,0.7,1.5,1.5,1.5h22.4c0.8,0,1.5-0.7,1.5-1.5v-22.4c0-0.8-0.7-1.5-1.5-1.5H115.5z M96.9,137.8
	c0-1.4-1.1-2.5-2.5-2.5h-92c-1.4,0-2.5,1.1-2.5,2.5s1.1,2.5,2.5,2.5h92C95.7,140.2,96.9,139.1,96.9,137.8z M96.9,150.8
	c0-1.4-1.1-2.5-2.5-2.5h-92c-1.4,0-2.5,1.1-2.5,2.5s1.1,2.5,2.5,2.5h92C95.7,153.2,96.9,152.1,96.9,150.8z M46.9,163.8
	c0-1.4-1.1-2.5-2.5-2.5h-42c-1.4,0-2.5,1.1-2.5,2.5s1.1,2.5,2.5,2.5h42C45.7,166.2,46.9,165.1,46.9,163.8z M200.4,44.8
	c0-1.4-1.1-2.5-2.5-2.5h-41.5c-1.4,0-2.5,1.1-2.5,2.5s1.1,2.5,2.5,2.5h41.5C199.2,47.2,200.4,46.1,200.4,44.8z M177.8,56.8
	c0-1.4-1.1-2.5-2.5-2.5h-18.9c-1.4,0-2.5,1.1-2.5,2.5s1.1,2.5,2.5,2.5h18.9C176.7,59.2,177.8,58.1,177.8,56.8z M200.4,94.8
	c0-1.4-1.1-2.5-2.5-2.5h-41.5c-1.4,0-2.5,1.1-2.5,2.5s1.1,2.5,2.5,2.5h41.5C199.2,97.2,200.4,96.1,200.4,94.8z M177.8,106.8
	c0-1.4-1.1-2.5-2.5-2.5h-18.9c-1.4,0-2.5,1.1-2.5,2.5s1.1,2.5,2.5,2.5h18.9C176.7,109.2,177.8,108.1,177.8,106.8z M200.4,142.8
	c0-1.4-1.1-2.5-2.5-2.5h-41.5c-1.4,0-2.5,1.1-2.5,2.5s1.1,2.5,2.5,2.5h41.5C199.2,145.2,200.4,144.1,200.4,142.8z M177.8,154.8
	c0-1.4-1.1-2.5-2.5-2.5h-18.9c-1.4,0-2.5,1.1-2.5,2.5s1.1,2.5,2.5,2.5h18.9C176.7,157.2,177.8,156.1,177.8,154.8z"/>
</svg>
