<?xml version="1.0" encoding="utf-8"?>
<!-- Generator: Adobe Illustrator 24.2.0, SVG Export Plug-In . SVG Version: 6.00 Build 0)  -->
<svg version="1.1" id="Layer_1" xmlns="http://www.w3.org/2000/svg" xmlns:xlink="http://www.w3.org/1999/xlink" x="0px" y="0px"
	 viewBox="0 0 200 200" style="enable-background:new 0 0 200 200;" xml:space="preserve">
<path id="banner2" d="M80.8,123.8h-65c-1.6,0-2.9-1.3-2.9-2.9c0-1.6,1.3-2.9,2.9-2.9h65c1.6,0,2.9,1.3,2.9,2.9
	C83.6,122.6,82.3,123.8,80.8,123.8z M60.8,135.8c0-1.6-1.3-2.9-2.9-2.9H15.7c-1.6,0-2.9,1.3-2.9,2.9s1.3,2.9,2.9,2.9h42.2
	C59.5,138.7,60.8,137.4,60.8,135.8z M182.7,77.9c0-1-0.8-1.7-1.7-1.7h-39.4c-1,0-1.7,0.8-1.7,1.7s0.8,1.7,1.7,1.7H181
	C181.9,79.6,182.7,78.8,182.7,77.9z M168.9,86.8c0-1-0.8-1.7-1.7-1.7h-25.6c-1,0-1.7,0.8-1.7,1.7s0.8,1.7,1.7,1.7h25.6
	C168.1,88.6,168.9,87.8,168.9,86.8z M182.7,129.9c0-1-0.8-1.7-1.7-1.7h-39.4c-1,0-1.7,0.8-1.7,1.7c0,1,0.8,1.7,1.7,1.7H181
	C181.9,131.6,182.7,130.8,182.7,129.9z M168.9,138.8c0-1-0.8-1.7-1.7-1.7h-25.6c-1,0-1.7,0.8-1.7,1.7s0.8,1.7,1.7,1.7h25.6
	C168.1,140.6,168.9,139.8,168.9,138.8z M199.6,90.8V55.1c0-4-3.4-7.2-7.5-7.2h-55c-4.1,0-7.5,3.3-7.5,7.2v35.8c0,4,3.4,7.2,7.5,7.2
	h55C196.2,98.1,199.6,94.8,199.6,90.8z M192.1,52.6c1.4,0,2.5,1.1,2.5,2.4v35.8c0,1.3-1.1,2.4-2.5,2.4h-55c-1.4,0-2.5-1.1-2.5-2.4
	V55.1c0-1.3,1.1-2.4,2.5-2.4H192.1z M200.1,145.4V111c0-4-3.4-7.2-7.5-7.2h-55c-4.1,0-7.5,3.2-7.5,7.2v34.4c0,4,3.4,7.2,7.5,7.2h55
	C196.7,152.6,200.1,149.4,200.1,145.4z M192.6,108.6c1.4,0,2.5,1.1,2.5,2.4v34.4c0,1.3-1.1,2.4-2.5,2.4h-55c-1.4,0-2.5-1.1-2.5-2.4
	V111c0-1.3,1.1-2.4,2.5-2.4H192.6z M123.1,145.1V54.6c0-4.1-3.3-7.5-7.3-7.5H7.4c-4,0-7.3,3.4-7.3,7.5v90.5c0,4.1,3.3,7.5,7.3,7.5
	h108.4C119.8,152.6,123.1,149.2,123.1,145.1z M115.8,52.1c1.3,0,2.4,1.1,2.4,2.5v90.5c0,1.4-1.1,2.5-2.4,2.5H7.4
	c-1.3,0-2.4-1.1-2.4-2.5V54.6c0-1.4,1.1-2.5,2.4-2.5H115.8z"/>
</svg>
