<?xml version="1.0" encoding="utf-8"?>
<!-- Generator: Adobe Illustrator 24.2.0, SVG Export Plug-In . SVG Version: 6.00 Build 0)  -->
<svg version="1.1" id="Layer_1" xmlns="http://www.w3.org/2000/svg" xmlns:xlink="http://www.w3.org/1999/xlink" x="0px" y="0px"
	 viewBox="0 0 200 200" style="enable-background:new 0 0 200 200;" xml:space="preserve">
<path id="slider" d="M70.8,199c-4.9,0-8.8-4-8.8-8.8c0-4.9,4-8.8,8.8-8.8s8.8,4,8.8,8.8C79.6,195,75.7,199,70.8,199z M70.8,185.7
	c-2.5,0-4.4,2-4.4,4.4c0,2.5,2,4.4,4.4,4.4s4.4-2,4.4-4.4C75.3,187.7,73.3,185.7,70.8,185.7z M100,181.4c-4.9,0-8.8,4-8.8,8.8
	c0,4.9,4,8.8,8.8,8.8c4.9,0,8.8-4,8.8-8.8C108.8,185.3,104.9,181.4,100,181.4z M129.2,199c-4.9,0-8.8-4-8.8-8.8c0-4.9,4-8.8,8.8-8.8
	c4.9,0,8.8,4,8.8,8.8S134,199,129.2,199z M129.2,185.7c-2.5,0-4.4,2-4.4,4.4c0,2.5,2,4.4,4.4,4.4c2.5,0,4.4-2,4.4-4.4
	C133.6,187.7,131.6,185.7,129.2,185.7z M193.5,132H6.5c-3.6,0-6.5-2.7-6.5-6V6c0-3.3,2.9-6,6.5-6h187c3.6,0,6.5,2.7,6.5,6v120
	C200,129.3,197.1,132,193.5,132z M6.5,4.6C5.7,4.6,5,5.3,5,6v120c0,0.8,0.7,1.4,1.5,1.4h187c0.8,0,1.5-0.6,1.5-1.4V6
	c0-0.8-0.7-1.4-1.5-1.4H6.5z M155,148.5c0-1.4-1.1-2.5-2.5-2.5H2.5c-1.4,0-2.5,1.1-2.5,2.5s1.1,2.5,2.5,2.5h150
	C153.9,151,155,149.9,155,148.5z M95,165.5c0-1.4-1.1-2.5-2.5-2.5h-90c-1.4,0-2.5,1.1-2.5,2.5s1.1,2.5,2.5,2.5h90
	C93.9,168,95,166.9,95,165.5z"/>
</svg>
