<?xml version="1.0" encoding="utf-8"?>
<!-- Generator: Adobe Illustrator 24.2.0, SVG Export Plug-In . SVG Version: 6.00 Build 0)  -->
<svg version="1.1" id="Layer_1" xmlns="http://www.w3.org/2000/svg" xmlns:xlink="http://www.w3.org/1999/xlink" x="0px" y="0px"
	 viewBox="0 0 200 200" style="enable-background:new 0 0 200 200;" xml:space="preserve">
<path id="full" d="M193.5,160H6.5c-3.6,0-6.5-2.9-6.5-6.5V6.5C0,2.9,2.9,0,6.5,0h187c3.6,0,6.5,2.9,6.5,6.5v147
	C200,157.1,197.1,160,193.5,160z M6.5,5C5.7,5,5,5.7,5,6.5v147c0,0.8,0.7,1.5,1.5,1.5h187c0.8,0,1.5-0.7,1.5-1.5V6.5
	c0-0.8-0.7-1.5-1.5-1.5H6.5z M160,179.5c0-1.4-1.1-2.5-2.5-2.5H2.5c-1.4,0-2.5,1.1-2.5,2.5s1.1,2.5,2.5,2.5h155
	C158.9,182,160,180.9,160,179.5z M100,197.5c0-1.4-1.1-2.5-2.5-2.5h-95c-1.4,0-2.5,1.1-2.5,2.5s1.1,2.5,2.5,2.5h95
	C98.9,200,100,198.9,100,197.5z"/>
</svg>
