<?xml version="1.0" encoding="utf-8"?>
<!-- Generator: Adobe Illustrator 24.2.0, SVG Export Plug-In . SVG Version: 6.00 Build 0)  -->
<svg version="1.1" id="Layer_1" xmlns="http://www.w3.org/2000/svg" xmlns:xlink="http://www.w3.org/1999/xlink" x="0px" y="0px"
	 viewBox="0 0 200 200" style="enable-background:new 0 0 200 200;" xml:space="preserve">
<path id="carousel" d="M55.2,95.7h-49c-3.6,0-6.5-2.9-6.5-6.5v-49c0-3.6,2.9-6.5,6.5-6.5h49c3.6,0,6.5,2.9,6.5,6.5v49
	C61.8,92.8,58.8,95.7,55.2,95.7z M6.2,38.7c-0.8,0-1.5,0.7-1.5,1.5v49c0,0.8,0.7,1.5,1.5,1.5h49c0.8,0,1.5-0.7,1.5-1.5v-49
	c0-0.8-0.7-1.5-1.5-1.5C55.2,38.7,6.2,38.7,6.2,38.7z M193.2,95.7h-49c-3.6,0-6.5-2.9-6.5-6.5v-49c0-3.6,2.9-6.5,6.5-6.5h49
	c3.6,0,6.5,2.9,6.5,6.5v49C199.8,92.8,196.8,95.7,193.2,95.7z M144.2,38.7c-0.8,0-1.5,0.7-1.5,1.5v49c0,0.8,0.7,1.5,1.5,1.5h49
	c0.8,0,1.5-0.7,1.5-1.5v-49c0-0.8-0.7-1.5-1.5-1.5C193.2,38.7,144.2,38.7,144.2,38.7z M124.2,95.7h-49c-3.6,0-6.5-2.9-6.5-6.5v-49
	c0-3.6,2.9-6.5,6.5-6.5h49c3.6,0,6.5,2.9,6.5,6.5v49C130.8,92.8,127.8,95.7,124.2,95.7z M75.2,38.7c-0.8,0-1.5,0.7-1.5,1.5v49
	c0,0.8,0.7,1.5,1.5,1.5h49c0.8,0,1.5-0.7,1.5-1.5v-49c0-0.8-0.7-1.5-1.5-1.5C124.2,38.7,75.2,38.7,75.2,38.7z M61.8,107.2
	c0-1.4-1.1-2.5-2.5-2.5h-57c-1.4,0-2.5,1.1-2.5,2.5s1.1,2.5,2.5,2.5h57C60.6,109.7,61.8,108.6,61.8,107.2z M41.8,120.2
	c0-1.4-1.1-2.5-2.5-2.5h-37c-1.4,0-2.5,1.1-2.5,2.5s1.1,2.5,2.5,2.5h37C40.6,122.7,41.8,121.6,41.8,120.2z M130.8,107.2
	c0-1.4-1.1-2.5-2.5-2.5h-57c-1.4,0-2.5,1.1-2.5,2.5s1.1,2.5,2.5,2.5h57C129.6,109.7,130.8,108.6,130.8,107.2z M110.8,120.2
	c0-1.4-1.1-2.5-2.5-2.5h-37c-1.4,0-2.5,1.1-2.5,2.5s1.1,2.5,2.5,2.5h37C109.6,122.7,110.8,121.6,110.8,120.2z M200.2,107.2
	c0-1.4-1.1-2.5-2.5-2.5h-57c-1.4,0-2.5,1.1-2.5,2.5s1.1,2.5,2.5,2.5h57C199.1,109.7,200.2,108.6,200.2,107.2z M180.2,120.2
	c0-1.4-1.1-2.5-2.5-2.5h-37c-1.4,0-2.5,1.1-2.5,2.5s1.1,2.5,2.5,2.5h37C179.1,122.7,180.2,121.6,180.2,120.2z M66.6,166.3
	c-5.6,0-10.1-4.5-10.1-10.1s4.5-10.1,10.1-10.1s10.1,4.5,10.1,10.1C76.7,161.7,72.2,166.3,66.6,166.3z M66.6,151.1
	c-2.8,0-5.1,2.3-5.1,5.1s2.3,5.1,5.1,5.1c2.8,0,5.1-2.3,5.1-5.1C71.7,153.4,69.4,151.1,66.6,151.1z M100,146.1
	c-5.6,0-10.1,4.5-10.1,10.1s4.5,10.1,10.1,10.1s10.1-4.5,10.1-10.1S105.6,146.1,100,146.1z M133.4,166.3c-5.6,0-10.1-4.5-10.1-10.1
	s4.5-10.1,10.1-10.1c5.6,0,10.1,4.5,10.1,10.1C143.5,161.7,139,166.3,133.4,166.3z M133.4,151.1c-2.8,0-5.1,2.3-5.1,5.1
	s2.3,5.1,5.1,5.1s5.1-2.3,5.1-5.1C138.5,153.4,136.2,151.1,133.4,151.1z"/>
</svg>
