<?xml version="1.0" encoding="utf-8"?>
<!-- Generator: Adobe Illustrator 24.2.0, SVG Export Plug-In . SVG Version: 6.00 Build 0)  -->
<svg version="1.1" id="Layer_1" xmlns="http://www.w3.org/2000/svg" xmlns:xlink="http://www.w3.org/1999/xlink" x="0px" y="0px"
	 viewBox="0 0 200 200" style="enable-background:new 0 0 200 200;" xml:space="preserve">
<path id="author" d="M123.1,191.2l-110.7,0c-4.1-0.3-7.3-1.8-9.5-4.4c-2.4-2.9-3.4-7.1-2.8-12.3c3-26.9,24.3-31.8,41.5-35.7
	c9.3-2.1,18.2-4.1,23.6-9l4.2-3.8l1.8,5.3c3.4,10.1,12.5,16.6,23,16.6c0.1,0,0.2,0,0.4,0c8.1-0.1,18-4.5,21.7-16.5l1.7-5.5l4.3,3.9
	c4.1,3.7,13.4,6.2,21.8,8.1c0.3,0.1,0.6,0.1,0.9,0.2l9.4,2.1l-7.7,4.7c-11.1,6.8-19.3,17.1-22.5,28.4c-1.3,4.7-1.8,9.3-1.3,13.7
	L123.1,191.2z M12.9,183.8h102.3c0-4.1,0.6-8.2,1.8-12.4c3-10.6,9.7-20.4,18.9-27.8c-5.3-1.4-10.4-3.1-14.4-5.3
	c-5,10.5-14.9,17-26.8,17.1c-12.4,0.2-23.1-6.4-28.6-17.1c-6.4,4-14.4,5.8-22.8,7.7c-17.1,3.9-33.3,7.6-35.7,29.3
	c-0.2,2.1-0.2,5,1.2,6.7C9.5,183.1,10.9,183.6,12.9,183.8z M183.3,118.2L183.3,118.2c-2-1.5-4.8-1.1-6.4,0.8l-3.9,4.9l22.1,17.1
	l3.9-4.9c1.5-2,1.1-4.8-0.8-6.4L183.3,118.2L183.3,118.2z M167.1,179.1L167.1,179.1L167.1,179.1l24.6-33.7l-22.1-17.1L145,162l0,0
	l0,0l-2.9,19.6c-1.8,12.5-2.2,9.9,9.7,4.4C157,183.7,162,181.4,167.1,179.1L167.1,179.1z M93.8,124.3c0,0-0.1,0-0.1,0
	c-8,0-14.9-2.8-21-8.4c-4.5-4.1-26-29.8-24.9-44.4c0.3-3.6,1.9-6.5,4.6-8.4c0.1,0,0.1-0.1,0.2-0.1c-0.4-6.8-0.5-14.6-0.2-21l0-0.2
	c0.2-1.9,0.6-3.8,1.1-5.8c2.2-7.7,7.5-14.6,15.2-19.5c3.8-2.4,8-4.3,12.4-5.5c2.1-0.6,6.9-1.1,14.1-1.7L97,9.1
	c13.9-1.4,21,3.3,30.7,13.8c5.2,5.7,8.2,13.1,8.9,22l0,0.2l-0.4,18.7c2,1.3,3.4,3.3,4.1,5.8c0.9,3.4,0.1,7.7-2.4,13.4l-0.1,0.2
	c-0.1,0.1-0.2,0.3-0.3,0.6l-9.2,15.1c-3.6,5.9-7.4,12.1-12.6,16.9C109.4,121.5,102.3,124.3,93.8,124.3z M59.8,42.4
	c-0.3,6.9-0.2,15.5,0.4,22.5l0.2,2.8l-2.6,1c-0.4,0.2-0.8,0.4-1.2,0.6c-0.5,0.4-1.2,1-1.4,2.8c-0.3,4.4,3,12.2,9.1,21.4
	c5.5,8.4,11.5,15.2,13.5,17c4.8,4.4,9.9,6.4,16,6.4c6.7,0.1,12-2.1,16.9-6.7c4.5-4.2,7.9-9.9,11.3-15.4l9.1-15
	c2.3-5.2,2.2-7.6,2-8.6c-0.3-1-0.7-1.5-1.8-1.8l-2.7-0.8l0.5-23.5c-0.5-7.2-2.8-12.9-6.9-17.3c-8.9-9.6-13.6-12.6-24.5-11.5
	l-1.8,0.2c-3,0.3-11,1-12.8,1.5c-3.7,1-7.2,2.6-10.4,4.6c-6.1,3.9-10.4,9.3-12,15.2C60.2,39.4,59.9,41,59.8,42.4z"/>
</svg>
