<?xml version="1.0" encoding="utf-8"?>
<!-- Generator: Adobe Illustrator 24.2.0, SVG Export Plug-In . SVG Version: 6.00 Build 0)  -->
<svg version="1.1" id="Layer_1" xmlns="http://www.w3.org/2000/svg" xmlns:xlink="http://www.w3.org/1999/xlink" x="0px" y="0px"
	 viewBox="0 0 200 200" style="enable-background:new 0 0 200 200;" xml:space="preserve">
<path id="masonry" d="M85.5,126h-79c-3.6,0-6.5-2.9-6.5-6.5V6c0-3.6,2.9-6.5,6.5-6.5h79C89.1-0.5,92,2.4,92,6v113.5
	C92,123.1,89.1,126,85.5,126z M6.5,4.5C5.7,4.5,5,5.2,5,6v113.5c0,0.8,0.7,1.5,1.5,1.5h79c0.8,0,1.5-0.7,1.5-1.5V6
	c0-0.8-0.7-1.5-1.5-1.5H6.5z M85.5,200h-79c-3.6,0-6.5-2.9-6.5-6.5v-45c0-3.6,2.9-6.5,6.5-6.5h79c3.6,0,6.5,2.9,6.5,6.5v45
	C92,197.1,89.1,200,85.5,200z M6.5,147c-0.8,0-1.5,0.7-1.5,1.5v45c0,0.8,0.7,1.5,1.5,1.5h79c0.8,0,1.5-0.7,1.5-1.5v-45
	c0-0.8-0.7-1.5-1.5-1.5H6.5z M193.5,55h-79c-3.6,0-6.5-2.9-6.5-6.5V6c0-3.6,2.9-6.5,6.5-6.5h79c3.6,0,6.5,2.9,6.5,6.5v42.5
	C200,52.1,197.1,55,193.5,55z M114.5,4.5c-0.8,0-1.5,0.7-1.5,1.5v42.5c0,0.8,0.7,1.5,1.5,1.5h79c0.8,0,1.5-0.7,1.5-1.5V6
	c0-0.8-0.7-1.5-1.5-1.5H114.5z M193.5,200h-79c-3.6,0-6.5-2.9-6.5-6.5V77c0-3.6,2.9-6.5,6.5-6.5h79c3.6,0,6.5,2.9,6.5,6.5v116.5
	C200,197.1,197.1,200,193.5,200z M114.5,75.5c-0.8,0-1.5,0.7-1.5,1.5v116.5c0,0.8,0.7,1.5,1.5,1.5h79c0.8,0,1.5-0.7,1.5-1.5V77
	c0-0.8-0.7-1.5-1.5-1.5H114.5z"/>
</svg>
