<?xml version="1.0" encoding="utf-8"?>
<!-- Generator: Adobe Illustrator 24.2.0, SVG Export Plug-In . SVG Version: 6.00 Build 0)  -->
<svg version="1.1" id="Layer_1" xmlns="http://www.w3.org/2000/svg" xmlns:xlink="http://www.w3.org/1999/xlink" x="0px" y="0px"
	 viewBox="0 0 200 200" style="enable-background:new 0 0 200 200;" xml:space="preserve">
<path id="flash" d="M192.5,81H7.5C3.4,81,0,84.4,0,88.5v23c0,4.1,3.4,7.5,7.5,7.5h185c4.1,0,7.5-3.4,7.5-7.5v-23
	C200,84.4,196.6,81,192.5,81z M50.5,100c0,1.4-1.1,2.5-2.5,2.5H17c-1.4,0-2.5-1.1-2.5-2.5s1.1-2.5,2.5-2.5h31
	C49.4,97.5,50.5,98.6,50.5,100z M195,111.5c0,1.4-1.1,2.5-2.5,2.5H62.7v-7.2l4.2-4.2c1.2-1.2,1.2-3.1,0-4.2l-4.7-4.7V86h130.3
	c1.4,0,2.5,1.1,2.5,2.5V111.5z M179.5,102.5h-83c-1.4,0-2.5-1.1-2.5-2.5s1.1-2.5,2.5-2.5h83c1.4,0,2.5,1.1,2.5,2.5
	S180.9,102.5,179.5,102.5z M84,105L84,105c-2.8,0-5-2.2-5-5l0,0c0-2.8,2.2-5,5-5l0,0c2.8,0,5,2.2,5,5l0,0C89,102.8,86.8,105,84,105z
	"/>
</svg>
