<?xml version="1.0" encoding="utf-8"?>
<!-- Generator: Adobe Illustrator 24.2.0, SVG Export Plug-In . SVG Version: 6.00 Build 0)  -->
<svg version="1.1" id="Layer_1" xmlns="http://www.w3.org/2000/svg" xmlns:xlink="http://www.w3.org/1999/xlink" x="0px" y="0px"
	 viewBox="0 0 200 200" style="enable-background:new 0 0 200 200;" xml:space="preserve">
<path d="M183,2.5H17C9,2.5,2.5,9,2.5,17v166c0,8,6.5,14.5,14.5,14.5h166c8,0,14.5-6.5,14.5-14.5V17C197.5,9,191,2.5,183,2.5z
	 M192.5,183c0,5.2-4.3,9.5-9.5,9.5H17c-5.2,0-9.5-4.3-9.5-9.5V35h185V183z M192.5,30H7.5V17c0-5.2,4.3-9.5,9.5-9.5h166
	c5.2,0,9.5,4.3,9.5,9.5V30z M28,19c0,2.8-2.2,5-5,5s-5-2.2-5-5s2.2-5,5-5S28,16.2,28,19z M41,19c0,2.8-2.2,5-5,5s-5-2.2-5-5
	s2.2-5,5-5S41,16.2,41,19z M54,19c0,2.8-2.2,5-5,5s-5-2.2-5-5s2.2-5,5-5S54,16.2,54,19z M18.9,121V79.1h5.5v37h20.6v4.9H18.9z
	 M50,100.6c0-7,1.9-12.4,5.6-16.3s8.6-5.9,14.5-5.9c3.9,0,7.4,0.9,10.5,2.8c3.1,1.8,5.5,4.4,7.1,7.7c1.6,3.3,2.4,7.1,2.4,11.2
	c0,4.2-0.9,8-2.6,11.4c-1.7,3.4-4.1,5.9-7.3,7.6c-3.1,1.7-6.5,2.6-10.2,2.6c-3.9,0-7.5-1-10.6-2.9c-3.1-1.9-5.5-4.5-7.1-7.8
	C50.8,107.7,50,104.2,50,100.6z M55.7,100.6c0,5,1.4,9,4.1,11.9s6.1,4.4,10.2,4.4c4.2,0,7.6-1.5,10.3-4.4c2.7-2.9,4-7.1,4-12.5
	c0-3.4-0.6-6.4-1.7-8.9c-1.2-2.5-2.8-4.5-5.1-5.9c-2.2-1.4-4.7-2.1-7.5-2.1c-3.9,0-7.3,1.3-10.1,4C57.1,89.8,55.7,94.3,55.7,100.6z
	 M116.8,104.5v-4.9l17.7,0v15.5c-2.7,2.2-5.5,3.8-8.4,4.9c-2.9,1.1-5.9,1.6-8.9,1.6c-4.1,0-7.9-0.9-11.2-2.6
	c-3.4-1.8-5.9-4.3-7.6-7.6c-1.7-3.3-2.6-7.1-2.6-11.2c0-4.1,0.9-7.9,2.6-11.4c1.7-3.5,4.2-6.2,7.4-7.9c3.2-1.7,6.9-2.6,11.1-2.6
	c3,0,5.8,0.5,8.2,1.5c2.4,1,4.4,2.3,5.8,4.1c1.4,1.8,2.4,4,3.2,6.9l-5,1.4c-0.6-2.1-1.4-3.8-2.3-5c-0.9-1.2-2.3-2.2-4-2.9
	c-1.7-0.7-3.7-1.1-5.8-1.1c-2.5,0-4.7,0.4-6.6,1.2s-3.3,1.8-4.5,3c-1.1,1.3-2,2.6-2.6,4.1c-1.1,2.6-1.6,5.4-1.6,8.4
	c0,3.7,0.6,6.9,1.9,9.4c1.3,2.5,3.2,4.4,5.6,5.6c2.5,1.2,5.1,1.8,7.8,1.8c2.4,0,4.7-0.5,7-1.4c2.3-0.9,4-1.9,5.2-3v-7.8H116.8z
	 M141,100.6c0-7,1.9-12.4,5.6-16.3c3.7-3.9,8.6-5.9,14.5-5.9c3.9,0,7.4,0.9,10.5,2.8c3.1,1.8,5.5,4.4,7.1,7.7
	c1.6,3.3,2.4,7.1,2.4,11.2c0,4.2-0.9,8-2.6,11.4c-1.7,3.4-4.1,5.9-7.3,7.6c-3.1,1.7-6.5,2.6-10.2,2.6c-3.9,0-7.5-1-10.6-2.9
	c-3.1-1.9-5.5-4.5-7.1-7.8C141.8,107.7,141,104.2,141,100.6z M146.8,100.6c0,5,1.4,9,4.1,11.9s6.1,4.4,10.2,4.4
	c4.2,0,7.6-1.5,10.3-4.4c2.7-2.9,4-7.1,4-12.5c0-3.4-0.6-6.4-1.7-8.9c-1.2-2.5-2.8-4.5-5.1-5.9c-2.2-1.4-4.7-2.1-7.5-2.1
	c-3.9,0-7.3,1.3-10.1,4C148.2,89.8,146.8,94.3,146.8,100.6z"/>
</svg>
