<?xml version="1.0" encoding="utf-8"?>
<!-- Generator: Adobe Illustrator 24.2.0, SVG Export Plug-In . SVG Version: 6.00 Build 0)  -->
<svg version="1.1" id="Layer_1" xmlns="http://www.w3.org/2000/svg" xmlns:xlink="http://www.w3.org/1999/xlink" x="0px" y="0px"
	 viewBox="0 0 200 200" style="enable-background:new 0 0 200 200;" xml:space="preserve">
<path id="search" d="M186.3,183.2l-74.1-74.1c9.4-10.2,15.2-23.9,15.2-38.8c0-31.6-25.7-57.2-57.2-57.2S13,38.7,13,70.2
	s25.7,57.2,57.2,57.2c15,0,28.6-5.8,38.8-15.2l74.1,74.1c0.4,0.4,1,0.7,1.6,0.7s1.2-0.2,1.6-0.7C187.2,185.5,187.2,184,186.3,183.2z
	 M17.5,70.2c0-29.1,23.7-52.7,52.7-52.7S123,41.2,123,70.2c0,14.3-5.7,27.2-15,36.8c-0.2,0.1-0.4,0.2-0.6,0.4
	c-0.2,0.2-0.3,0.4-0.4,0.6c-9.5,9.3-22.5,15-36.8,15C41.2,123,17.5,99.3,17.5,70.2z"/>
</svg>
