<?xml version="1.0" encoding="utf-8"?>
<!-- Generator: Adobe Illustrator 24.2.0, SVG Export Plug-In . SVG Version: 6.00 Build 0)  -->
<svg version="1.1" id="Layer_1" xmlns="http://www.w3.org/2000/svg" xmlns:xlink="http://www.w3.org/1999/xlink" x="0px" y="0px"
	 viewBox="0 0 200 200" style="enable-background:new 0 0 200 200;" xml:space="preserve">
<path id="expanded" d="M165,66H35c-1.4,0-2.5-1.1-2.5-2.5S33.6,61,35,61h130c1.4,0,2.5,1.1,2.5,2.5S166.4,66,165,66z M167.5,99.5
	c0-1.4-1.1-2.5-2.5-2.5H35c-1.4,0-2.5,1.1-2.5,2.5s1.1,2.5,2.5,2.5h130C166.4,102,167.5,100.9,167.5,99.5z M167.5,136.5
	c0-1.4-1.1-2.5-2.5-2.5H35c-1.4,0-2.5,1.1-2.5,2.5s1.1,2.5,2.5,2.5h130C166.4,139,167.5,137.9,167.5,136.5z"/>
</svg>
