<?xml version="1.0" encoding="utf-8"?>
<!-- Generator: Adobe Illustrator 24.2.0, SVG Export Plug-In . SVG Version: 6.00 Build 0)  -->
<svg version="1.1" id="Layer_1" xmlns="http://www.w3.org/2000/svg" xmlns:xlink="http://www.w3.org/1999/xlink" x="0px" y="0px"
	 viewBox="0 0 200 200" style="enable-background:new 0 0 200 200;" xml:space="preserve">
<path id="express_grid" d="M193.1,67.7h-48.8c-3.6,0-6.5-2.9-6.5-6.5V12.5c0-3.6,2.9-6.5,6.5-6.5h48.8c3.6,0,6.5,2.9,6.5,6.5v48.8
	C199.6,64.8,196.7,67.7,193.1,67.7z M144.4,11c-0.8,0-1.5,0.7-1.5,1.5v48.8c0,0.8,0.7,1.5,1.5,1.5h48.8c0.8,0,1.5-0.7,1.5-1.5V12.5
	c0-0.8-0.7-1.5-1.5-1.5H144.4z M75.9,65.5c0-1.4-1.1-2.5-2.5-2.5H16.7c-1.4,0-2.5,1.1-2.5,2.5c0,1.4,1.1,2.5,2.5,2.5h56.7
	C74.8,68,75.9,66.9,75.9,65.5z M56,78.5c0-1.4-1.1-2.5-2.5-2.5H16.7c-1.4,0-2.5,1.1-2.5,2.5s1.1,2.5,2.5,2.5h36.8
	C54.9,81,56,79.9,56,78.5z M200.1,79.2c0-1.4-1.1-2.5-2.5-2.5h-56.7c-1.4,0-2.5,1.1-2.5,2.5c0,1.4,1.1,2.5,2.5,2.5h56.7
	C199,81.7,200.1,80.5,200.1,79.2z M180.2,92.1c0-1.4-1.1-2.5-2.5-2.5h-36.8c-1.4,0-2.5,1.1-2.5,2.5s1.1,2.5,2.5,2.5h36.8
	C179.1,94.6,180.2,93.5,180.2,92.1z M55.8,168.5H7.1c-3.6,0-6.5-2.9-6.5-6.5v-48.8c0-3.6,2.9-6.5,6.5-6.5h48.8
	c3.6,0,6.5,2.9,6.5,6.5v48.8C62.3,165.6,59.4,168.5,55.8,168.5z M7.1,111.8c-0.8,0-1.5,0.7-1.5,1.5v48.8c0,0.8,0.7,1.5,1.5,1.5h48.8
	c0.8,0,1.5-0.7,1.5-1.5v-48.8c0-0.8-0.7-1.5-1.5-1.5H7.1z M193.1,168.5h-48.8c-3.6,0-6.5-2.9-6.5-6.5v-48.8c0-3.6,2.9-6.5,6.5-6.5
	h48.8c3.6,0,6.5,2.9,6.5,6.5v48.8C199.6,165.6,196.7,168.5,193.1,168.5z M144.4,111.8c-0.8,0-1.5,0.7-1.5,1.5v48.8
	c0,0.8,0.7,1.5,1.5,1.5h48.8c0.8,0,1.5-0.7,1.5-1.5v-48.8c0-0.8-0.7-1.5-1.5-1.5H144.4z M124.5,168.5H75.7c-3.6,0-6.5-2.9-6.5-6.5
	v-48.8c0-3.6,2.9-6.5,6.5-6.5h48.8c3.6,0,6.5,2.9,6.5,6.5v48.8C130.9,165.6,128,168.5,124.5,168.5z M75.7,111.8
	c-0.8,0-1.5,0.7-1.5,1.5v48.8c0,0.8,0.7,1.5,1.5,1.5h48.8c0.8,0,1.5-0.7,1.5-1.5v-48.8c0-0.8-0.7-1.5-1.5-1.5H75.7z M62.3,180
	c0-1.4-1.1-2.5-2.5-2.5H3.1c-1.4,0-2.5,1.1-2.5,2.5c0,1.4,1.1,2.5,2.5,2.5h56.7C61.2,182.5,62.3,181.4,62.3,180z M42.4,192.9
	c0-1.4-1.1-2.5-2.5-2.5H3.1c-1.4,0-2.5,1.1-2.5,2.5s1.1,2.5,2.5,2.5h36.8C41.3,195.4,42.4,194.3,42.4,192.9z M130.9,180
	c0-1.4-1.1-2.5-2.5-2.5H71.7c-1.4,0-2.5,1.1-2.5,2.5c0,1.4,1.1,2.5,2.5,2.5h56.7C129.8,182.5,130.9,181.4,130.9,180z M111,192.9
	c0-1.4-1.1-2.5-2.5-2.5H71.7c-1.4,0-2.5,1.1-2.5,2.5s1.1,2.5,2.5,2.5h36.8C109.9,195.4,111,194.3,111,192.9z M200.1,180
	c0-1.4-1.1-2.5-2.5-2.5h-56.7c-1.4,0-2.5,1.1-2.5,2.5c0,1.4,1.1,2.5,2.5,2.5h56.7C199,182.5,200.1,181.4,200.1,180z M180.2,192.9
	c0-1.4-1.1-2.5-2.5-2.5h-36.8c-1.4,0-2.5,1.1-2.5,2.5s1.1,2.5,2.5,2.5h36.8C179.1,195.4,180.2,194.3,180.2,192.9z M122.9,97.8H7.6
	c-4.1,0-7.5-3.4-7.5-7.5V11.7c0-4.1,3.4-7.5,7.5-7.5h115.3c4.1,0,7.5,3.4,7.5,7.5v78.6C130.4,94.4,127.1,97.8,122.9,97.8z M7.6,9.2
	c-1.4,0-2.5,1.1-2.5,2.5v78.6c0,1.4,1.1,2.5,2.5,2.5h115.3c1.4,0,2.5-1.1,2.5-2.5V11.7c0-1.4-1.1-2.5-2.5-2.5H7.6z"/>
</svg>
