<?xml version="1.0" encoding="utf-8"?>
<!-- Generator: Adobe Illustrator 24.2.0, SVG Export Plug-In . SVG Version: 6.00 Build 0)  -->
<svg version="1.1" id="Layer_1" xmlns="http://www.w3.org/2000/svg" xmlns:xlink="http://www.w3.org/1999/xlink" x="0px" y="0px"
	 viewBox="0 0 200 200" style="enable-background:new 0 0 200 200;" xml:space="preserve">
<path id="horizontal_menu" d="M188.5,49.8h-177C4.6,49.8-1,55.4-1,62.2s5.6,12.5,12.5,12.5h50v61c0,8,6.5,14.5,14.5,14.5h41
	c8,0,14.5-6.5,14.5-14.5v-61h57c6.9,0,12.5-5.6,12.5-12.5S195.4,49.8,188.5,49.8z M61,69.8H11.5c-4.1,0-7.5-3.4-7.5-7.5
	s3.4-7.5,7.5-7.5H61V69.8z M66,54.8h61v15H66V54.8z M126.5,135.8c0,5.2-4.3,9.5-9.5,9.5H76c-5.2,0-9.5-4.3-9.5-9.5v-61h60V135.8z
	 M188.5,69.8H132v-15h56.5c4.1,0,7.5,3.4,7.5,7.5S192.6,69.8,188.5,69.8z M117.7,92.8H75.3c-1.2,0-2.3-1.1-2.3-2.5s1-2.5,2.3-2.5
	h42.5c1.2,0,2.3,1.1,2.3,2.5S119,92.8,117.7,92.8z M117.7,112.8H75.3c-1.2,0-2.3-1.1-2.3-2.5s1-2.5,2.3-2.5h42.5
	c1.2,0,2.3,1.1,2.3,2.5S119,112.8,117.7,112.8z M117.7,132.8H75.3c-1.2,0-2.3-1.1-2.3-2.5s1-2.5,2.3-2.5h42.5c1.2,0,2.3,1.1,2.3,2.5
	S119,132.8,117.7,132.8z"/>
</svg>
