<?xml version="1.0" encoding="utf-8"?>
<!-- Generator: Adobe Illustrator 24.2.0, SVG Export Plug-In . SVG Version: 6.00 Build 0)  -->
<svg version="1.1" id="Layer_1" xmlns="http://www.w3.org/2000/svg" xmlns:xlink="http://www.w3.org/1999/xlink" x="0px" y="0px"
	 viewBox="0 0 200 200" style="enable-background:new 0 0 200 200;" xml:space="preserve">
<path id="tile" d="M193.5,0H6.5C2.9,0,0,2.9,0,6.5v187c0,3.6,2.9,6.5,6.5,6.5h187c3.6,0,6.5-2.9,6.5-6.5V6.5
	C200,2.9,197.1,0,193.5,0z M195,6.5V64h-59V5h57.5C194.3,5,195,5.7,195,6.5z M136,69h59v59h-59V69z M6.5,5H131v123H5V6.5
	C5,5.7,5.7,5,6.5,5z M131,133v62H69v-62H131z M5,193.5V133h59v62H6.5C5.7,195,5,194.3,5,193.5z M193.5,195H136v-62h59v60.5
	C195,194.3,194.3,195,193.5,195z"/>
</svg>
