<?xml version="1.0" encoding="utf-8"?>
<!-- Generator: Adobe Illustrator 24.2.0, SVG Export Plug-In . SVG Version: 6.00 Build 0)  -->
<svg version="1.1" id="Layer_1" xmlns="http://www.w3.org/2000/svg" xmlns:xlink="http://www.w3.org/1999/xlink" x="0px" y="0px"
	 viewBox="0 0 200 200" style="enable-background:new 0 0 200 200;" xml:space="preserve">
<path id="list" d="M55.5,62h-49C2.9,62,0,59.1,0,55.5v-49C0,2.9,2.9,0,6.5,0h49C59.1,0,62,2.9,62,6.5v49C62,59.1,59.1,62,55.5,62z
	 M6.5,5C5.7,5,5,5.7,5,6.5v49C5,56.3,5.7,57,6.5,57h49c0.8,0,1.5-0.7,1.5-1.5v-49C57,5.7,56.3,5,55.5,5H6.5z M189,23.5
	c0-1.4-2.1-2.5-4.8-2.5H74.8c-2.7,0-4.8,1.1-4.8,2.5s2.1,2.5,4.8,2.5h109.4C186.9,26,189,24.9,189,23.5z M150.6,36.5
	c0-1.4-2.1-2.5-4.8-2.5h-71c-2.7,0-4.8,1.1-4.8,2.5s2.1,2.5,4.8,2.5h71C148.5,39,150.6,37.9,150.6,36.5z M55.5,131h-49
	c-3.6,0-6.5-2.9-6.5-6.5v-49C0,71.9,2.9,69,6.5,69h49c3.6,0,6.5,2.9,6.5,6.5v49C62,128.1,59.1,131,55.5,131z M6.5,74
	C5.7,74,5,74.7,5,75.5v49c0,0.8,0.7,1.5,1.5,1.5h49c0.8,0,1.5-0.7,1.5-1.5v-49c0-0.8-0.7-1.5-1.5-1.5H6.5z M189,92.5
	c0-1.4-2.1-2.5-4.8-2.5H74.8c-2.7,0-4.8,1.1-4.8,2.5s2.1,2.5,4.8,2.5h109.4C186.9,95,189,93.9,189,92.5z M150.6,105.5
	c0-1.4-2.1-2.5-4.8-2.5h-71c-2.7,0-4.8,1.1-4.8,2.5s2.1,2.5,4.8,2.5h71C148.5,108,150.6,106.9,150.6,105.5z M55.5,200h-49
	c-3.6,0-6.5-2.9-6.5-6.5v-49c0-3.6,2.9-6.5,6.5-6.5h49c3.6,0,6.5,2.9,6.5,6.5v49C62,197.1,59.1,200,55.5,200z M6.5,143
	c-0.8,0-1.5,0.7-1.5,1.5v49c0,0.8,0.7,1.5,1.5,1.5h49c0.8,0,1.5-0.7,1.5-1.5v-49c0-0.8-0.7-1.5-1.5-1.5H6.5z M189,161.5
	c0-1.4-2.1-2.5-4.8-2.5H74.8c-2.7,0-4.8,1.1-4.8,2.5s2.1,2.5,4.8,2.5h109.4C186.9,164,189,162.9,189,161.5z M150.6,174.5
	c0-1.4-2.1-2.5-4.8-2.5h-71c-2.7,0-4.8,1.1-4.8,2.5s2.1,2.5,4.8,2.5h71C148.5,177,150.6,175.9,150.6,174.5z"/>
</svg>
