<?xml version="1.0" encoding="utf-8"?>
<!-- Generator: Adobe Illustrator 24.2.0, SVG Export Plug-In . SVG Version: 6.00 Build 0)  -->
<svg version="1.1" id="Layer_1" xmlns="http://www.w3.org/2000/svg" xmlns:xlink="http://www.w3.org/1999/xlink" x="0px" y="0px"
	 viewBox="0 0 200 200" style="enable-background:new 0 0 200 200;" xml:space="preserve">
<path id="grid" d="M55.5,62h-49C2.9,62,0,59.1,0,55.5v-49C0,2.9,2.9,0,6.5,0h49C59.1,0,62,2.9,62,6.5v49C62,59.1,59.1,62,55.5,62z
	 M6.5,5C5.7,5,5,5.7,5,6.5v49C5,56.3,5.7,57,6.5,57h49c0.8,0,1.5-0.7,1.5-1.5v-49C57,5.7,56.3,5,55.5,5H6.5z M193.5,62h-49
	c-3.6,0-6.5-2.9-6.5-6.5v-49c0-3.6,2.9-6.5,6.5-6.5h49c3.6,0,6.5,2.9,6.5,6.5v49C200,59.1,197.1,62,193.5,62z M144.5,5
	c-0.8,0-1.5,0.7-1.5,1.5v49c0,0.8,0.7,1.5,1.5,1.5h49c0.8,0,1.5-0.7,1.5-1.5v-49c0-0.8-0.7-1.5-1.5-1.5H144.5z M124.5,62h-49
	c-3.6,0-6.5-2.9-6.5-6.5v-49C69,2.9,71.9,0,75.5,0h49c3.6,0,6.5,2.9,6.5,6.5v49C131,59.1,128.1,62,124.5,62z M75.5,5
	C74.7,5,74,5.7,74,6.5v49c0,0.8,0.7,1.5,1.5,1.5h49c0.8,0,1.5-0.7,1.5-1.5v-49c0-0.8-0.7-1.5-1.5-1.5H75.5z M62,73.5
	c0-1.4-1.1-2.5-2.5-2.5h-57C1.1,71,0,72.1,0,73.5S1.1,76,2.5,76h57C60.9,76,62,74.9,62,73.5z M42,86.5c0-1.4-1.1-2.5-2.5-2.5h-37
	C1.1,84,0,85.1,0,86.5S1.1,89,2.5,89h37C40.9,89,42,87.9,42,86.5z M131,73.5c0-1.4-1.1-2.5-2.5-2.5h-57c-1.4,0-2.5,1.1-2.5,2.5
	s1.1,2.5,2.5,2.5h57C129.9,76,131,74.9,131,73.5z M111,86.5c0-1.4-1.1-2.5-2.5-2.5h-37c-1.4,0-2.5,1.1-2.5,2.5s1.1,2.5,2.5,2.5h37
	C109.9,89,111,87.9,111,86.5z M200.5,73.5c0-1.4-1.1-2.5-2.5-2.5h-57c-1.4,0-2.5,1.1-2.5,2.5s1.1,2.5,2.5,2.5h57
	C199.4,76,200.5,74.9,200.5,73.5z M180.5,86.5c0-1.4-1.1-2.5-2.5-2.5h-37c-1.4,0-2.5,1.1-2.5,2.5s1.1,2.5,2.5,2.5h37
	C179.4,89,180.5,87.9,180.5,86.5z M55.5,173h-49c-3.6,0-6.5-2.9-6.5-6.5v-49c0-3.6,2.9-6.5,6.5-6.5h49c3.6,0,6.5,2.9,6.5,6.5v49
	C62,170.1,59.1,173,55.5,173z M6.5,116c-0.8,0-1.5,0.7-1.5,1.5v49c0,0.8,0.7,1.5,1.5,1.5h49c0.8,0,1.5-0.7,1.5-1.5v-49
	c0-0.8-0.7-1.5-1.5-1.5H6.5z M193.5,173h-49c-3.6,0-6.5-2.9-6.5-6.5v-49c0-3.6,2.9-6.5,6.5-6.5h49c3.6,0,6.5,2.9,6.5,6.5v49
	C200,170.1,197.1,173,193.5,173z M144.5,116c-0.8,0-1.5,0.7-1.5,1.5v49c0,0.8,0.7,1.5,1.5,1.5h49c0.8,0,1.5-0.7,1.5-1.5v-49
	c0-0.8-0.7-1.5-1.5-1.5H144.5z M124.5,173h-49c-3.6,0-6.5-2.9-6.5-6.5v-49c0-3.6,2.9-6.5,6.5-6.5h49c3.6,0,6.5,2.9,6.5,6.5v49
	C131,170.1,128.1,173,124.5,173z M75.5,116c-0.8,0-1.5,0.7-1.5,1.5v49c0,0.8,0.7,1.5,1.5,1.5h49c0.8,0,1.5-0.7,1.5-1.5v-49
	c0-0.8-0.7-1.5-1.5-1.5H75.5z M62,184.5c0-1.4-1.1-2.5-2.5-2.5h-57c-1.4,0-2.5,1.1-2.5,2.5s1.1,2.5,2.5,2.5h57
	C60.9,187,62,185.9,62,184.5z M42,197.5c0-1.4-1.1-2.5-2.5-2.5h-37c-1.4,0-2.5,1.1-2.5,2.5s1.1,2.5,2.5,2.5h37
	C40.9,200,42,198.9,42,197.5z M131,184.5c0-1.4-1.1-2.5-2.5-2.5h-57c-1.4,0-2.5,1.1-2.5,2.5s1.1,2.5,2.5,2.5h57
	C129.9,187,131,185.9,131,184.5z M111,197.5c0-1.4-1.1-2.5-2.5-2.5h-37c-1.4,0-2.5,1.1-2.5,2.5s1.1,2.5,2.5,2.5h37
	C109.9,200,111,198.9,111,197.5z M200.5,184.5c0-1.4-1.1-2.5-2.5-2.5h-57c-1.4,0-2.5,1.1-2.5,2.5s1.1,2.5,2.5,2.5h57
	C199.4,187,200.5,185.9,200.5,184.5z M180.5,197.5c0-1.4-1.1-2.5-2.5-2.5h-37c-1.4,0-2.5,1.1-2.5,2.5s1.1,2.5,2.5,2.5h37
	C179.4,200,180.5,198.9,180.5,197.5z"/>
</svg>
