<?xml version="1.0" encoding="utf-8"?>
<!-- Generator: Adobe Illustrator 24.2.0, SVG Export Plug-In . SVG Version: 6.00 Build 0)  -->
<svg version="1.1" id="Layer_1" xmlns="http://www.w3.org/2000/svg" xmlns:xlink="http://www.w3.org/1999/xlink" x="0px" y="0px"
	 viewBox="0 0 200 200" style="enable-background:new 0 0 200 200;" xml:space="preserve">
<path id="banner" d="M43,95H6c-3.6,0-6.5-2.9-6.5-6.5v-37c0-3.6,2.9-6.5,6.5-6.5h37c3.6,0,6.5,2.9,6.5,6.5v37
	C49.5,92.1,46.6,95,43,95z M6,50c-0.8,0-1.5,0.7-1.5,1.5v37C4.5,89.3,5.2,90,6,90h37c0.8,0,1.5-0.7,1.5-1.5v-37
	c0-0.8-0.7-1.5-1.5-1.5H6z M43,155H6c-3.6,0-6.5-2.9-6.5-6.5v-37c0-3.6,2.9-6.5,6.5-6.5h37c3.6,0,6.5,2.9,6.5,6.5v37
	C49.5,152.1,46.6,155,43,155z M6,110c-0.8,0-1.5,0.7-1.5,1.5v37c0,0.8,0.7,1.5,1.5,1.5h37c0.8,0,1.5-0.7,1.5-1.5v-37
	c0-0.8-0.7-1.5-1.5-1.5H6z M194,155h-37c-3.6,0-6.5-3-6.5-6.7V51.7c0-3.7,2.9-6.7,6.5-6.7h37c3.6,0,6.5,3,6.5,6.7v96.5
	C200.5,152,197.6,155,194,155z M157,50.2c-0.8,0-1.5,0.7-1.5,1.6v96.5c0,0.9,0.7,1.6,1.5,1.6h37c0.8,0,1.5-0.7,1.5-1.6V51.7
	c0-0.9-0.7-1.6-1.5-1.6L157,50.2L157,50.2z M135,155H64c-3.3,0-6-3-6-6.7V51.7c0-3.7,2.7-6.7,6-6.7h71c3.3,0,6,3,6,6.7v96.5
	C141,152,138.3,155,135,155z M64,50.2c-0.8,0-1.4,0.7-1.4,1.6v96.5c0,0.9,0.6,1.6,1.4,1.6h71c0.8,0,1.4-0.7,1.4-1.6V51.7
	c0-0.9-0.6-1.6-1.4-1.6L64,50.2L64,50.2z"/>
</svg>
