<?xml version="1.0" encoding="utf-8"?>
<!-- Generator: Adobe Illustrator 24.2.0, SVG Export Plug-In . SVG Version: 6.00 Build 0)  -->
<svg version="1.1" id="Layer_1" xmlns="http://www.w3.org/2000/svg" xmlns:xlink="http://www.w3.org/1999/xlink" x="0px" y="0px"
	 viewBox="0 0 200 200" style="enable-background:new 0 0 200 200;" xml:space="preserve">
<path id="timeline" d="M55.5,131h-49c-3.6,0-6.5-2.9-6.5-6.5v-49C0,71.9,2.9,69,6.5,69h49c3.6,0,6.5,2.9,6.5,6.5v49
	C62,128.1,59.1,131,55.5,131z M6.5,74C5.7,74,5,74.7,5,75.5v49c0,0.8,0.7,1.5,1.5,1.5h49c0.8,0,1.5-0.7,1.5-1.5v-49
	c0-0.8-0.7-1.5-1.5-1.5H6.5z M193.5,62h-49c-3.6,0-6.5-2.9-6.5-6.5v-49c0-3.6,2.9-6.5,6.5-6.5h49c3.6,0,6.5,2.9,6.5,6.5v49
	C200,59.1,197.1,62,193.5,62z M144.5,5c-0.8,0-1.5,0.7-1.5,1.5v49c0,0.8,0.7,1.5,1.5,1.5h49c0.8,0,1.5-0.7,1.5-1.5v-49
	c0-0.8-0.7-1.5-1.5-1.5H144.5z M193.5,200h-49c-3.6,0-6.5-2.9-6.5-6.5v-49c0-3.6,2.9-6.5,6.5-6.5h49c3.6,0,6.5,2.9,6.5,6.5v49
	C200,197.1,197.1,200,193.5,200z M144.5,143c-0.8,0-1.5,0.7-1.5,1.5v49c0,0.8,0.7,1.5,1.5,1.5h49c0.8,0,1.5-0.7,1.5-1.5v-49
	c0-0.8-0.7-1.5-1.5-1.5H144.5z M106.5,31c0-3.6-2.9-6.5-6.5-6.5s-6.5,2.9-6.5,6.5s2.9,6.5,6.5,6.5S106.5,34.6,106.5,31z M93.5,169
	c0,3.6,2.9,6.5,6.5,6.5s6.5-2.9,6.5-6.5s-2.9-6.5-6.5-6.5S93.5,165.4,93.5,169z M111.5,100c0-5.5-3.9-10.1-9-11.2V42.2
	c5.1-1.1,9-5.7,9-11.2c0-6.3-5.2-11.5-11.5-11.5S88.5,24.7,88.5,31c0,5.5,3.9,10.1,9,11.2v46.6c-5.1,1.1-9,5.7-9,11.2
	s3.9,10.1,9,11.2v46.6c-5.1,1.1-9,5.7-9,11.2c0,6.3,5.2,11.5,11.5,11.5s11.5-5.2,11.5-11.5c0-5.5-3.9-10.1-9-11.2v-46.6
	C107.6,110.1,111.5,105.5,111.5,100z M93.5,31c0-3.6,2.9-6.5,6.5-6.5s6.5,2.9,6.5,6.5s-2.9,6.5-6.5,6.5S93.5,34.6,93.5,31z
	 M106.5,169c0,3.6-2.9,6.5-6.5,6.5s-6.5-2.9-6.5-6.5s2.9-6.5,6.5-6.5S106.5,165.4,106.5,169z M100,106.5c-0.9,0-1.7-0.2-2.5-0.5
	c-2.3-1-4-3.3-4-6s1.7-5,4-6c0.8-0.3,1.6-0.5,2.5-0.5s1.7,0.2,2.5,0.5c2.3,1,4,3.3,4,6s-1.7,5-4,6
	C101.7,106.3,100.9,106.5,100,106.5z"/>
</svg>
