<?xml version="1.0" encoding="utf-8"?>
<!-- Generator: Adobe Illustrator 24.2.0, SVG Export Plug-In . SVG Version: 6.00 Build 0)  -->
<svg version="1.1" id="Layer_1" xmlns="http://www.w3.org/2000/svg" xmlns:xlink="http://www.w3.org/1999/xlink" x="0px" y="0px"
	 viewBox="0 0 200 200" style="enable-background:new 0 0 200 200;" xml:space="preserve">
<path id="trending" d="M83.2,69.2H60.8c-3.6,0-6.5-2.9-6.5-6.5V40.4c0-3.6,2.9-6.5,6.5-6.5h22.4c3.6,0,6.5,2.9,6.5,6.5v22.4
	C89.7,66.3,86.8,69.2,83.2,69.2z M60.8,38.9c-0.8,0-1.5,0.7-1.5,1.5v22.4c0,0.8,0.7,1.5,1.5,1.5h22.4c0.8,0,1.5-0.7,1.5-1.5V40.4
	c0-0.8-0.7-1.5-1.5-1.5H60.8z M83.2,117.7H60.8c-3.6,0-6.5-2.9-6.5-6.5V88.8c0-3.6,2.9-6.5,6.5-6.5h22.4c3.6,0,6.5,2.9,6.5,6.5v22.4
	C89.7,114.8,86.8,117.7,83.2,117.7z M60.8,87.3c-0.8,0-1.5,0.7-1.5,1.5v22.4c0,0.8,0.7,1.5,1.5,1.5h22.4c0.8,0,1.5-0.7,1.5-1.5V88.8
	c0-0.8-0.7-1.5-1.5-1.5H60.8z M83.2,166.1H60.8c-3.6,0-6.5-2.9-6.5-6.5v-22.4c0-3.6,2.9-6.5,6.5-6.5h22.4c3.6,0,6.5,2.9,6.5,6.5
	v22.4C89.7,163.2,86.8,166.1,83.2,166.1z M60.8,135.8c-0.8,0-1.5,0.7-1.5,1.5v22.4c0,0.8,0.7,1.5,1.5,1.5h22.4
	c0.8,0,1.5-0.7,1.5-1.5v-22.4c0-0.8-0.7-1.5-1.5-1.5H60.8z M145.7,44.9c0-1.4-1.1-2.5-2.5-2.5h-41.5c-1.4,0-2.5,1.1-2.5,2.5
	s1.1,2.5,2.5,2.5h41.5C144.6,47.4,145.7,46.3,145.7,44.9z M123.1,56.9c0-1.4-1.1-2.5-2.5-2.5h-18.9c-1.4,0-2.5,1.1-2.5,2.5
	s1.1,2.5,2.5,2.5h18.9C122,59.4,123.1,58.3,123.1,56.9z M145.7,94.9c0-1.4-1.1-2.5-2.5-2.5h-41.5c-1.4,0-2.5,1.1-2.5,2.5
	s1.1,2.5,2.5,2.5h41.5C144.6,97.4,145.7,96.3,145.7,94.9z M123.1,106.9c0-1.4-1.1-2.5-2.5-2.5h-18.9c-1.4,0-2.5,1.1-2.5,2.5
	s1.1,2.5,2.5,2.5h18.9C122,109.4,123.1,108.3,123.1,106.9z M145.7,142.9c0-1.4-1.1-2.5-2.5-2.5h-41.5c-1.4,0-2.5,1.1-2.5,2.5
	s1.1,2.5,2.5,2.5h41.5C144.6,145.4,145.7,144.3,145.7,142.9z M123.1,154.9c0-1.4-1.1-2.5-2.5-2.5h-18.9c-1.4,0-2.5,1.1-2.5,2.5
	s1.1,2.5,2.5,2.5h18.9C122,157.4,123.1,156.3,123.1,154.9z M114.6,18.9c1-0.9,1.2-2.5,0.3-3.5l-13-15c-1-1.1-2.8-1.1-3.8,0l-13,15
	c-0.9,1-0.8,2.6,0.3,3.5c1,0.9,2.6,0.8,3.5-0.3L100,5.8l11.1,12.8c0.5,0.6,1.2,0.9,1.9,0.9C113.6,19.5,114.2,19.3,114.6,18.9z
	 M113,180c-0.7,0-1.4,0.3-1.9,0.9L100,193.7l-11.1-12.8c-0.9-1-2.5-1.2-3.5-0.3c-1,0.9-1.2,2.5-0.3,3.5l13,15c0.9,1.1,2.8,1.1,3.8,0
	l13-15c0.9-1,0.8-2.6-0.3-3.5C114.2,180.2,113.6,180,113,180z"/>
</svg>
