<?xml version="1.0" encoding="utf-8"?>
<!-- Generator: Adobe Illustrator 24.2.0, SVG Export Plug-In . SVG Version: 6.00 Build 0)  -->
<svg version="1.1" id="Layer_1" xmlns="http://www.w3.org/2000/svg" xmlns:xlink="http://www.w3.org/1999/xlink" x="0px" y="0px"
	 viewBox="0 0 200 200" style="enable-background:new 0 0 200 200;" xml:space="preserve">
<path id="tabs" d="M55.2,136.1h-49c-3.6,0-6.5-2.9-6.5-6.5v-49c0-3.6,2.9-6.5,6.5-6.5h49c3.6,0,6.5,2.9,6.5,6.5v49
	C61.8,133.1,58.8,136.1,55.2,136.1z M6.2,79.1c-0.8,0-1.5,0.7-1.5,1.5v49c0,0.8,0.7,1.5,1.5,1.5h49c0.8,0,1.5-0.7,1.5-1.5v-49
	c0-0.8-0.7-1.5-1.5-1.5C55.2,79.1,6.2,79.1,6.2,79.1z M193.2,136.1h-49c-3.6,0-6.5-2.9-6.5-6.5v-49c0-3.6,2.9-6.5,6.5-6.5h49
	c3.6,0,6.5,2.9,6.5,6.5v49C199.8,133.1,196.8,136.1,193.2,136.1z M144.2,79.1c-0.8,0-1.5,0.7-1.5,1.5v49c0,0.8,0.7,1.5,1.5,1.5h49
	c0.8,0,1.5-0.7,1.5-1.5v-49c0-0.8-0.7-1.5-1.5-1.5C193.2,79.1,144.2,79.1,144.2,79.1z M124.2,136.1h-49c-3.6,0-6.5-2.9-6.5-6.5v-49
	c0-3.6,2.9-6.5,6.5-6.5h49c3.6,0,6.5,2.9,6.5,6.5v49C130.8,133.1,127.8,136.1,124.2,136.1z M75.2,79.1c-0.8,0-1.5,0.7-1.5,1.5v49
	c0,0.8,0.7,1.5,1.5,1.5h49c0.8,0,1.5-0.7,1.5-1.5v-49c0-0.8-0.7-1.5-1.5-1.5C124.2,79.1,75.2,79.1,75.2,79.1z M61.8,147.6
	c0-1.4-1.1-2.5-2.5-2.5h-57c-1.4,0-2.5,1.1-2.5,2.5s1.1,2.5,2.5,2.5h57C60.6,150.1,61.8,148.9,61.8,147.6z M41.8,160.6
	c0-1.4-1.1-2.5-2.5-2.5h-37c-1.4,0-2.5,1.1-2.5,2.5s1.1,2.5,2.5,2.5h37C40.6,163.1,41.8,161.9,41.8,160.6z M130.8,147.6
	c0-1.4-1.1-2.5-2.5-2.5h-57c-1.4,0-2.5,1.1-2.5,2.5s1.1,2.5,2.5,2.5h57C129.6,150.1,130.8,148.9,130.8,147.6z M110.8,160.6
	c0-1.4-1.1-2.5-2.5-2.5h-37c-1.4,0-2.5,1.1-2.5,2.5s1.1,2.5,2.5,2.5h37C109.6,163.1,110.8,161.9,110.8,160.6z M200.2,147.6
	c0-1.4-1.1-2.5-2.5-2.5h-57c-1.4,0-2.5,1.1-2.5,2.5s1.1,2.5,2.5,2.5h57C199.1,150.1,200.2,148.9,200.2,147.6z M180.2,160.6
	c0-1.4-1.1-2.5-2.5-2.5h-37c-1.4,0-2.5,1.1-2.5,2.5s1.1,2.5,2.5,2.5h37C179.1,163.1,180.2,161.9,180.2,160.6z M52.2,34.4H5.8
	c-3.6,0-6.5,2.9-6.5,6.5v7.9c0,3.6,2.9,6.5,6.5,6.5h46.5c3.6,0,6.5-2.9,6.5-6.5v-7.9C58.8,37.4,55.8,34.4,52.2,34.4z M193.2,55.3
	h-46.5c-3.6,0-6.5-2.9-6.5-6.5v-7.9c0-3.6,2.9-6.5,6.5-6.5h46.5c3.6,0,6.5,2.9,6.5,6.5v7.9C199.8,52.4,196.8,55.3,193.2,55.3z
	 M146.8,39.4c-0.8,0-1.5,0.7-1.5,1.5v7.9c0,0.8,0.7,1.5,1.5,1.5h46.5c0.8,0,1.5-0.7,1.5-1.5v-7.9c0-0.8-0.7-1.5-1.5-1.5H146.8z
	 M123,55.3H76.5c-3.6,0-6.5-2.9-6.5-6.5v-7.9c0-3.6,2.9-6.5,6.5-6.5H123c3.6,0,6.5,2.9,6.5,6.5v7.9C129.5,52.4,126.6,55.3,123,55.3z
	 M76.5,39.4c-0.8,0-1.5,0.7-1.5,1.5v7.9c0,0.8,0.7,1.5,1.5,1.5H123c0.8,0,1.5-0.7,1.5-1.5v-7.9c0-0.8-0.7-1.5-1.5-1.5H76.5z"/>
</svg>
