<?xml version="1.0" encoding="utf-8"?>
<!-- Generator: Adobe Illustrator 24.2.0, SVG Export Plug-In . SVG Version: 6.00 Build 0)  -->
<svg version="1.1" id="Layer_1" xmlns="http://www.w3.org/2000/svg" xmlns:xlink="http://www.w3.org/1999/xlink" x="0px" y="0px"
	 viewBox="0 0 200 200" style="enable-background:new 0 0 200 200;" xml:space="preserve">
<path id="list" d="M137.9,69.1h-22.4c-3.6,0-6.5-2.9-6.5-6.5V40.2c0-3.6,2.9-6.5,6.5-6.5h22.4c3.6,0,6.5,2.9,6.5,6.5v22.4
	C144.4,66.2,141.4,69.1,137.9,69.1z M115.5,38.8c-0.8,0-1.5,0.7-1.5,1.5v22.4c0,0.8,0.7,1.5,1.5,1.5h22.4c0.8,0,1.5-0.7,1.5-1.5
	V40.2c0-0.8-0.7-1.5-1.5-1.5H115.5z M137.9,117.5h-22.4c-3.6,0-6.5-2.9-6.5-6.5V88.7c0-3.6,2.9-6.5,6.5-6.5h22.4
	c3.6,0,6.5,2.9,6.5,6.5V111C144.4,114.6,141.4,117.5,137.9,117.5z M115.5,87.2c-0.8,0-1.5,0.7-1.5,1.5V111c0,0.8,0.7,1.5,1.5,1.5
	h22.4c0.8,0,1.5-0.7,1.5-1.5V88.7c0-0.8-0.7-1.5-1.5-1.5H115.5z M137.9,166h-22.4c-3.6,0-6.5-2.9-6.5-6.5v-22.4
	c0-3.6,2.9-6.5,6.5-6.5h22.4c3.6,0,6.5,2.9,6.5,6.5v22.4C144.4,163.1,141.4,166,137.9,166z M115.5,135.6c-0.8,0-1.5,0.7-1.5,1.5
	v22.4c0,0.8,0.7,1.5,1.5,1.5h22.4c0.8,0,1.5-0.7,1.5-1.5v-22.4c0-0.8-0.7-1.5-1.5-1.5H115.5z M200.4,44.8c0-1.4-1.1-2.5-2.5-2.5
	h-41.5c-1.4,0-2.5,1.1-2.5,2.5s1.1,2.5,2.5,2.5h41.5C199.2,47.2,200.4,46.1,200.4,44.8z M177.8,56.8c0-1.4-1.1-2.5-2.5-2.5h-18.9
	c-1.4,0-2.5,1.1-2.5,2.5s1.1,2.5,2.5,2.5h18.9C176.7,59.2,177.8,58.1,177.8,56.8z M200.4,94.8c0-1.4-1.1-2.5-2.5-2.5h-41.5
	c-1.4,0-2.5,1.1-2.5,2.5s1.1,2.5,2.5,2.5h41.5C199.2,97.2,200.4,96.1,200.4,94.8z M177.8,106.8c0-1.4-1.1-2.5-2.5-2.5h-18.9
	c-1.4,0-2.5,1.1-2.5,2.5s1.1,2.5,2.5,2.5h18.9C176.7,109.2,177.8,108.1,177.8,106.8z M200.4,142.8c0-1.4-1.1-2.5-2.5-2.5h-41.5
	c-1.4,0-2.5,1.1-2.5,2.5s1.1,2.5,2.5,2.5h41.5C199.2,145.2,200.4,144.1,200.4,142.8z M177.8,154.8c0-1.4-1.1-2.5-2.5-2.5h-18.9
	c-1.4,0-2.5,1.1-2.5,2.5s1.1,2.5,2.5,2.5h18.9C176.7,157.2,177.8,156.1,177.8,154.8z M28.9,69.1H6.5c-3.6,0-6.5-2.9-6.5-6.5V40.2
	c0-3.6,2.9-6.5,6.5-6.5h22.4c3.6,0,6.5,2.9,6.5,6.5v22.4C35.4,66.2,32.4,69.1,28.9,69.1z M6.5,38.8c-0.8,0-1.5,0.7-1.5,1.5v22.4
	c0,0.8,0.7,1.5,1.5,1.5h22.4c0.8,0,1.5-0.7,1.5-1.5V40.2c0-0.8-0.7-1.5-1.5-1.5H6.5z M28.9,117.5H6.5c-3.6,0-6.5-2.9-6.5-6.5V88.7
	c0-3.6,2.9-6.5,6.5-6.5h22.4c3.6,0,6.5,2.9,6.5,6.5V111C35.4,114.6,32.4,117.5,28.9,117.5z M6.5,87.2c-0.8,0-1.5,0.7-1.5,1.5V111
	c0,0.8,0.7,1.5,1.5,1.5h22.4c0.8,0,1.5-0.7,1.5-1.5V88.7c0-0.8-0.7-1.5-1.5-1.5H6.5z M28.9,166H6.5c-3.6,0-6.5-2.9-6.5-6.5v-22.4
	c0-3.6,2.9-6.5,6.5-6.5h22.4c3.6,0,6.5,2.9,6.5,6.5v22.4C35.4,163.1,32.4,166,28.9,166z M6.5,135.6c-0.8,0-1.5,0.7-1.5,1.5v22.4
	c0,0.8,0.7,1.5,1.5,1.5h22.4c0.8,0,1.5-0.7,1.5-1.5v-22.4c0-0.8-0.7-1.5-1.5-1.5H6.5z M91.4,44.8c0-1.4-1.1-2.5-2.5-2.5H47.4
	c-1.4,0-2.5,1.1-2.5,2.5s1.1,2.5,2.5,2.5h41.5C90.2,47.2,91.4,46.1,91.4,44.8z M68.8,56.8c0-1.4-1.1-2.5-2.5-2.5H47.4
	c-1.4,0-2.5,1.1-2.5,2.5s1.1,2.5,2.5,2.5h18.9C67.7,59.2,68.8,58.1,68.8,56.8z M91.4,94.8c0-1.4-1.1-2.5-2.5-2.5H47.4
	c-1.4,0-2.5,1.1-2.5,2.5s1.1,2.5,2.5,2.5h41.5C90.2,97.2,91.4,96.1,91.4,94.8z M68.8,106.8c0-1.4-1.1-2.5-2.5-2.5H47.4
	c-1.4,0-2.5,1.1-2.5,2.5s1.1,2.5,2.5,2.5h18.9C67.7,109.2,68.8,108.1,68.8,106.8z M91.4,142.8c0-1.4-1.1-2.5-2.5-2.5H47.4
	c-1.4,0-2.5,1.1-2.5,2.5s1.1,2.5,2.5,2.5h41.5C90.2,145.2,91.4,144.1,91.4,142.8z M68.8,154.8c0-1.4-1.1-2.5-2.5-2.5H47.4
	c-1.4,0-2.5,1.1-2.5,2.5s1.1,2.5,2.5,2.5h18.9C67.7,157.2,68.8,156.1,68.8,154.8z"/>
</svg>
