<?xml version="1.0" encoding="utf-8"?>
<!-- Generator: Adobe Illustrator 24.2.0, SVG Export Plug-In . SVG Version: 6.00 Build 0)  -->
<svg version="1.1" id="Layer_1" xmlns="http://www.w3.org/2000/svg" xmlns:xlink="http://www.w3.org/1999/xlink" x="0px" y="0px"
	 viewBox="0 0 200 200" style="enable-background:new 0 0 200 200;" xml:space="preserve">
<path id="title" d="M183,2.5H17C9,2.5,2.5,9,2.5,17v166c0,8,6.5,14.5,14.5,14.5h166c8,0,14.5-6.5,14.5-14.5V17
	C197.5,9,191,2.5,183,2.5z M17,7.5h166c5.2,0,9.5,4.3,9.5,9.5v13H7.5V17C7.5,11.8,11.8,7.5,17,7.5z M183,192.5H17
	c-5.2,0-9.5-4.3-9.5-9.5V35h185v148C192.5,188.2,188.2,192.5,183,192.5z M28,19c0,2.8-2.2,5-5,5s-5-2.2-5-5s2.2-5,5-5S28,16.2,28,19
	z M41,19c0,2.8-2.2,5-5,5s-5-2.2-5-5s2.2-5,5-5S41,16.2,41,19z M54,19c0,2.8-2.2,5-5,5s-5-2.2-5-5s2.2-5,5-5S54,16.2,54,19z
	 M146.5,90.6h-5.2c-0.5-1.8-1.3-3.9-2.4-6.4c-1.2-2.5-2.5-4.8-4-7c-1.5-2.3-3.1-4.3-4.9-6c-1.8-1.7-3.5-2.7-5.2-3
	c-1.6-0.2-3.5-0.3-5.9-0.5c-2.4-0.1-4.5-0.1-6.6-0.1H108v85.3c0,1.7,0.3,3.2,1.1,4.5c0.7,1.4,1.9,2.4,3.7,3.2
	c0.9,0.4,2.8,0.8,5.7,1.4c2.9,0.6,5.1,0.9,6.7,1v5.3H74.8V163c1.4-0.1,3.5-0.3,6.4-0.6c2.9-0.3,4.9-0.7,6-1.1
	c1.7-0.7,2.9-1.6,3.6-2.8c0.8-1.2,1.2-2.9,1.2-4.9v-86h-4.4c-1.6,0-3.5,0-5.8,0.1c-2.3,0.1-4.5,0.2-6.6,0.5c-1.7,0.2-3.4,1.2-5.1,3
	c-1.8,1.8-3.4,3.8-4.9,6c-1.5,2.3-2.8,4.6-4,7.2c-1.2,2.5-2,4.6-2.4,6.3h-5.3V61.7h92.9V90.6z"/>
</svg>
