<?xml version="1.0" encoding="utf-8"?>
<!-- Generator: Adobe Illustrator 24.2.0, SVG Export Plug-In . SVG Version: 6.00 Build 0)  -->
<svg version="1.1" id="Layer_1" xmlns="http://www.w3.org/2000/svg" xmlns:xlink="http://www.w3.org/1999/xlink" x="0px" y="0px"
	 viewBox="0 0 200 200" style="enable-background:new 0 0 200 200;" xml:space="preserve">
<path id="links" d="M190.5,141.9L158.6,110c-12.6-12.6-32.6-13.2-46-1.9L91.8,87.3c4.9-6,7.6-13.5,7.6-21.4c0-9.1-3.5-17.6-10-24
	L57.6,10c-6.4-6.4-15-10-24-10c-9.1,0-17.6,3.5-24,10c-6.4,6.4-10,15-10,24c0,9.1,3.5,17.6,10,24L41.4,90c6.4,6.4,15,10,24,10
	c8.6,0,16.7-3.2,23-9l20.7,20.7c-11.8,13.3-11.3,33.8,1.5,46.5l31.8,31.8c6.6,6.6,15.3,9.9,24,9.9c8.7,0,17.4-3.3,24-9.9
	C203.7,176.7,203.7,155.1,190.5,141.9z M65.4,94.9c-7.7,0-15-3-20.5-8.5L13.1,54.6c-5.5-5.5-8.5-12.8-8.5-20.5c0-7.7,3-15,8.5-20.5
	s12.8-8.5,20.5-8.5c7.7,0,15,3,20.5,8.5l31.8,31.8c5.5,5.5,8.5,12.8,8.5,20.5c0,6.5-2.2,12.8-6.1,17.8L69.8,65.2c-1-1-2.6-1-3.5,0
	c-1,1-1,2.6,0,3.5l18.6,18.6C79.5,92.3,72.7,94.9,65.4,94.9z M186.9,186.4c-5.5,5.5-12.8,8.5-20.5,8.5c-7.7,0-15-3-20.5-8.5
	l-31.8-31.8c-5.5-5.5-8.5-12.8-8.5-20.5c0-7,2.5-13.7,7-18.9l19.6,19.6c0.5,0.5,1.1,0.7,1.8,0.7s1.3-0.2,1.8-0.7c1-1,1-2.6,0-3.5
	l-19.6-19.6c5.2-4.3,11.6-6.6,18.4-6.6c7.7,0,15,3,20.5,8.5l31.8,31.8c5.5,5.5,8.5,12.8,8.5,20.5
	C195.4,173.7,192.4,180.9,186.9,186.4z"/>
</svg>
