<?xml version="1.0" encoding="utf-8"?>
<!-- Generator: Adobe Illustrator 24.2.0, SVG Export Plug-In . SVG Version: 6.00 Build 0)  -->
<svg version="1.1" id="Layer_1" xmlns="http://www.w3.org/2000/svg" xmlns:xlink="http://www.w3.org/1999/xlink" x="0px" y="0px"
	 viewBox="0 0 200 200" style="enable-background:new 0 0 200 200;" xml:space="preserve">
<path id="tagline" d="M183,2.5H17C9,2.5,2.5,9,2.5,17v166c0,8,6.5,14.5,14.5,14.5h166c8,0,14.5-6.5,14.5-14.5V17
	C197.5,9,191,2.5,183,2.5z M192.5,183c0,5.2-4.3,9.5-9.5,9.5H17c-5.2,0-9.5-4.3-9.5-9.5V35h185V183z M192.5,30H7.5V17
	c0-5.2,4.3-9.5,9.5-9.5h166c5.2,0,9.5,4.3,9.5,9.5V30z M28,19c0,2.8-2.2,5-5,5s-5-2.2-5-5s2.2-5,5-5S28,16.2,28,19z M41,19
	c0,2.8-2.2,5-5,5s-5-2.2-5-5s2.2-5,5-5S41,16.2,41,19z M54,19c0,2.8-2.2,5-5,5s-5-2.2-5-5s2.2-5,5-5S54,16.2,54,19z M58.3,62.4h-2
	c-0.2-0.7-0.5-1.6-1-2.5c-0.5-1-1-1.9-1.6-2.8c-0.6-0.9-1.2-1.7-1.9-2.4c-0.7-0.7-1.4-1.1-2-1.2c-0.6-0.1-1.4-0.1-2.3-0.2
	c-0.9,0-1.8-0.1-2.6-0.1h-1.7v33.6c0,0.7,0.1,1.2,0.4,1.8c0.3,0.5,0.8,1,1.5,1.3c0.4,0.1,1.1,0.3,2.2,0.6c1.1,0.2,2,0.4,2.6,0.4V93
	H30.1v-2.1c0.6,0,1.4-0.1,2.5-0.2c1.1-0.1,1.9-0.3,2.4-0.4c0.7-0.3,1.1-0.6,1.4-1.1c0.3-0.5,0.5-1.1,0.5-1.9V53.3h-1.7
	c-0.6,0-1.4,0-2.3,0c-0.9,0-1.8,0.1-2.6,0.2c-0.7,0.1-1.3,0.5-2,1.2c-0.7,0.7-1.3,1.5-1.9,2.4c-0.6,0.9-1.1,1.8-1.6,2.8
	c-0.5,1-0.8,1.8-0.9,2.5h-2.1V51h36.6V62.4z M134,117.5H22c-1.4,0-2.5-1.1-2.5-2.5s1.1-2.5,2.5-2.5h112c1.4,0,2.5,1.1,2.5,2.5
	S135.4,117.5,134,117.5z M103.5,133.5H22c-1.4,0-2.5-1.1-2.5-2.5s1.1-2.5,2.5-2.5h81.5c1.4,0,2.5,1.1,2.5,2.5
	S104.9,133.5,103.5,133.5z M72.5,149.5H22c-1.4,0-2.5-1.1-2.5-2.5s1.1-2.5,2.5-2.5h50.5c1.4,0,2.5,1.1,2.5,2.5
	S73.9,149.5,72.5,149.5z"/>
</svg>
