<?xml version="1.0" encoding="utf-8"?>
<!-- Generator: Adobe Illustrator 24.2.0, SVG Export Plug-In . SVG Version: 6.00 Build 0)  -->
<svg version="1.1" id="Layer_1" xmlns="http://www.w3.org/2000/svg" xmlns:xlink="http://www.w3.org/1999/xlink" x="0px" y="0px"
	 viewBox="0 0 200 200" style="enable-background:new 0 0 200 200;" xml:space="preserve">
<path id="vertical_menu" d="M167.1,60.2h-64.5v-42c0-4.1-3.4-7.5-7.5-7.5H32.9c-4.1,0-7.5,3.4-7.5,7.5v163.5c0,4.1,3.4,7.5,7.5,7.5
	h62.2c4.1,0,7.5-3.4,7.5-7.5v-52.5h64.5c4.1,0,7.5-3.4,7.5-7.5v-54C174.6,63.6,171.2,60.2,167.1,60.2z M97.4,65.2v20h-67v-20H97.4z
	 M30.4,60.2v-20h67.2v20h-0.2H30.4z M97.4,90.2v20h-67v-20H97.4z M32.9,15.8h62.2c1.4,0,2.5,1.1,2.5,2.5v17H30.4v-17
	C30.4,16.9,31.5,15.8,32.9,15.8z M30.4,140.2h67.2v20H30.4V140.2z M95.1,184.2H32.9c-1.4,0-2.5-1.1-2.5-2.5v-16.5h67.2v16.5
	C97.6,183.1,96.5,184.2,95.1,184.2z M97.6,135.2H30.4v-20h67v14h0.2V135.2z M169.6,121.8c0,1.4-1.1,2.5-2.5,2.5h-64.5v-59h64.5
	c1.4,0,2.5,1.1,2.5,2.5V121.8z M161.4,81.2h-51c-1.4,0-2.5-1.1-2.5-2.5s1.1-2.5,2.5-2.5h51c1.4,0,2.5,1.1,2.5,2.5
	S162.8,81.2,161.4,81.2z M161.4,97.2h-51c-1.4,0-2.5-1.1-2.5-2.5s1.1-2.5,2.5-2.5h51c1.4,0,2.5,1.1,2.5,2.5S162.8,97.2,161.4,97.2z
	 M161.4,113.2h-51c-1.4,0-2.5-1.1-2.5-2.5s1.1-2.5,2.5-2.5h51c1.4,0,2.5,1.1,2.5,2.5S162.8,113.2,161.4,113.2z"/>
</svg>
